<svg width="80" height="53" viewBox="0 0 80 53" fill="none" xmlns="http://www.w3.org/2000/svg">
<g clip-path="url(#clip0)">
<path d="M47.82 39.42H78.86" stroke="#E9BE02" stroke-width="1.7" stroke-miterlimit="10" stroke-linecap="round" stroke-linejoin="round"/>
<path d="M47.82 45.58H78.86" stroke="#E9BE02" stroke-width="1.7" stroke-miterlimit="10" stroke-linecap="round" stroke-linejoin="round"/>
<path d="M47.82 51.73H63.61" stroke="#E9BE02" stroke-width="1.7" stroke-miterlimit="10" stroke-linecap="round" stroke-linejoin="round"/>
<path d="M7.92001 24.13H0.850006V51.73H7.92001V24.13Z" stroke="#E9BE02" stroke-width="1.7" stroke-miterlimit="10" stroke-linecap="round" stroke-linejoin="round"/>
<path d="M19.07 0.850006H12V51.73H19.07V0.850006Z" stroke="#E9BE02" stroke-width="1.7" stroke-miterlimit="10" stroke-linecap="round" stroke-linejoin="round"/>
<path d="M30.22 10.6H23.15V51.72H30.22V10.6Z" stroke="#E9BE02" stroke-width="1.7" stroke-miterlimit="10" stroke-linecap="round" stroke-linejoin="round"/>
<path d="M41.37 15.46H34.3V51.73H41.37V15.46Z" stroke="#E9BE02" stroke-width="1.7" stroke-miterlimit="10" stroke-linecap="round" stroke-linejoin="round"/>
<path d="M61.2 17.81L73.82 23.76C71.52 28.64 66.59 31.76 61.2 31.76C53.55 31.76 47.25 25.46 47.25 17.81C47.25 10.16 53.55 3.86 61.2 3.86V17.81Z" stroke="#E9BE02" stroke-width="1.7" stroke-miterlimit="10" stroke-linecap="round" stroke-linejoin="round"/>
<path d="M64.63 15.45V1.25C72.42 1.25 78.83 7.66 78.83 15.45C78.83 17.5 78.38 19.53 77.53 21.4L64.63 15.45Z" stroke="#E9BE02" stroke-width="1.7" stroke-miterlimit="10" stroke-linecap="round" stroke-linejoin="round"/>
</g>
<defs>
<clipPath id="clip0">
<rect width="79.71" height="52.58" fill="white"/>
</clipPath>
</defs>
</svg>
