<svg width="93" height="43" viewBox="0 0 93 43" fill="none" xmlns="http://www.w3.org/2000/svg">
<g clip-path="url(#clip0)">
<path d="M46.36 0.850006C52.4 0.850006 57.3 5.75001 57.3 11.79C57.3 17.83 52.4 22.73 46.36 22.73C40.32 22.73 35.42 17.83 35.42 11.79C35.43 5.75001 40.32 0.850006 46.36 0.850006Z" stroke="#E9BE02" stroke-width="1.7" stroke-miterlimit="10" stroke-linecap="round" stroke-linejoin="round"/>
<path d="M27.12 41.86C27.12 31.23 35.74 22.62 46.36 22.62C56.99 22.62 65.6 31.24 65.6 41.86" stroke="#E9BE02" stroke-width="1.7" stroke-miterlimit="10" stroke-linecap="round" stroke-linejoin="round"/>
<path d="M75.9699 3.94C80.9599 3.94 84.9999 7.98 84.9999 12.97C84.9999 17.96 80.9599 22 75.9699 22C70.9799 22 66.9399 17.96 66.9399 12.97C66.9399 7.99 70.9799 3.94 75.9699 3.94Z" stroke="#E9BE02" stroke-width="1.7" stroke-miterlimit="10" stroke-linecap="round" stroke-linejoin="round"/>
<path d="M61.87 30.48C64.52 25.4 69.84 21.93 75.97 21.93C84.75 21.93 91.87 29.05 91.87 37.83" stroke="#E9BE02" stroke-width="1.7" stroke-miterlimit="10" stroke-linecap="round" stroke-linejoin="round"/>
<path d="M16.75 3.94C21.74 3.94 25.78 7.98 25.78 12.97C25.78 17.96 21.74 22 16.75 22C11.76 22 7.71999 17.96 7.71999 12.97C7.70999 7.99 11.76 3.94 16.75 3.94Z" stroke="#E9BE02" stroke-width="1.7" stroke-miterlimit="10" stroke-linecap="round" stroke-linejoin="round"/>
<path d="M0.849976 37.83C0.849976 29.05 7.96998 21.93 16.75 21.93C22.88 21.93 28.2 25.4 30.85 30.48" stroke="#E9BE02" stroke-width="1.7" stroke-miterlimit="10" stroke-linecap="round" stroke-linejoin="round"/>
</g>
<defs>
<clipPath id="clip0">
<rect width="92.72" height="42.71" fill="white"/>
</clipPath>
</defs>
</svg>
