<svg width="80" height="53" viewBox="0 0 80 53" fill="none" xmlns="http://www.w3.org/2000/svg">
<g clip-path="url(#clip0)">
<path d="M36.02 6.56H48.73V15.44" stroke="#E9BE02" stroke-width="1.7" stroke-miterlimit="10" stroke-linecap="round" stroke-linejoin="round"/>
<path d="M7.49001 45.39H0.850006V6.56H7.49001" stroke="#E9BE02" stroke-width="1.7" stroke-miterlimit="10" stroke-linecap="round" stroke-linejoin="round"/>
<path d="M48.73 36.51V45.39H36.02" stroke="#E9BE02" stroke-width="1.7" stroke-miterlimit="10" stroke-linecap="round" stroke-linejoin="round"/>
<path d="M7.48419 51.4159H36.0142V39.3759H7.48419V51.4159Z" stroke="#E9BE02" stroke-width="1.7" stroke-miterlimit="10" stroke-linecap="round" stroke-linejoin="round"/>
<path d="M7.48419 12.8922L36.0142 12.8922V0.852197L7.48419 0.852197V12.8922Z" stroke="#E9BE02" stroke-width="1.7" stroke-miterlimit="10" stroke-linecap="round" stroke-linejoin="round"/>
<path d="M73.09 20.2C76.28 20.2 78.86 22.78 78.86 25.97C78.86 29.16 76.28 31.74 73.09 31.74C69.9 31.74 67.32 29.16 67.32 25.97C67.31 22.79 69.9 20.2 73.09 20.2Z" stroke="#E9BE02" stroke-width="1.7" stroke-miterlimit="10" stroke-linecap="round" stroke-linejoin="round"/>
<path d="M63.82 6.37C68.94 6.37 73.09 10.52 73.09 15.64" stroke="#E9BE02" stroke-width="1.7" stroke-miterlimit="10" stroke-linecap="round" stroke-linejoin="round"/>
<path d="M63.82 45.59C68.94 45.59 73.09 41.44 73.09 36.32" stroke="#E9BE02" stroke-width="1.7" stroke-miterlimit="10" stroke-linecap="round" stroke-linejoin="round"/>
<path d="M48.7223 36.5102L59.2581 25.9744L48.7223 15.4386L38.1865 25.9744L48.7223 36.5102Z" stroke="#E9BE02" stroke-width="1.7" stroke-miterlimit="10" stroke-linecap="round" stroke-linejoin="round"/>
<path d="M67.31 25.98H59.26" stroke="#E9BE02" stroke-width="1.7" stroke-miterlimit="10" stroke-linecap="round" stroke-linejoin="round"/>
</g>
<defs>
<clipPath id="clip0">
<rect width="79.71" height="52.26" fill="white"/>
</clipPath>
</defs>
</svg>
