<svg width="76" height="55" viewBox="0 0 76 55" fill="none" xmlns="http://www.w3.org/2000/svg">
<g clip-path="url(#clip0)">
<path d="M14.12 1.69H0.850006V52.57H14.12V1.69Z" stroke="#E9BE02" stroke-width="1.7" stroke-miterlimit="10" stroke-linecap="round" stroke-linejoin="round"/>
<path d="M10 6.19H4.98V18.3H10V6.19Z" stroke="#E9BE02" stroke-width="1.7" stroke-miterlimit="10" stroke-linecap="round" stroke-linejoin="round"/>
<path d="M7.49 47.85C6.1 47.85 4.98 46.73 4.98 45.34C4.98 43.95 6.1 42.83 7.49 42.83C8.88 42.83 10 43.95 10 45.34C10 46.73 8.87 47.85 7.49 47.85Z" stroke="#E9BE02" stroke-width="1.7" stroke-miterlimit="10" stroke-linecap="round" stroke-linejoin="round"/>
<path d="M30.97 1.69H17.7V52.57H30.97V1.69Z" stroke="#E9BE02" stroke-width="1.7" stroke-miterlimit="10" stroke-linecap="round" stroke-linejoin="round"/>
<path d="M26.85 6.19H21.83V18.3H26.85V6.19Z" stroke="#E9BE02" stroke-width="1.7" stroke-miterlimit="10" stroke-linecap="round" stroke-linejoin="round"/>
<path d="M24.34 47.85C22.95 47.85 21.83 46.73 21.83 45.34C21.83 43.95 22.95 42.83 24.34 42.83C25.73 42.83 26.85 43.95 26.85 45.34C26.85 46.73 25.72 47.85 24.34 47.85Z" stroke="#E9BE02" stroke-width="1.7" stroke-miterlimit="10" stroke-linecap="round" stroke-linejoin="round"/>
<path d="M47.82 1.69H34.55V52.57H47.82V1.69Z" stroke="#E9BE02" stroke-width="1.7" stroke-miterlimit="10" stroke-linecap="round" stroke-linejoin="round"/>
<path d="M43.7 6.19H38.68V18.3H43.7V6.19Z" stroke="#E9BE02" stroke-width="1.7" stroke-miterlimit="10" stroke-linecap="round" stroke-linejoin="round"/>
<path d="M41.19 47.85C39.8 47.85 38.68 46.73 38.68 45.34C38.68 43.95 39.8 42.83 41.19 42.83C42.58 42.83 43.7 43.95 43.7 45.34C43.69 46.73 42.57 47.85 41.19 47.85Z" stroke="#E9BE02" stroke-width="1.7" stroke-miterlimit="10" stroke-linecap="round" stroke-linejoin="round"/>
<path d="M60.5738 0.84863L47.816 4.49921L61.8131 53.4152L74.5709 49.7647L60.5738 0.84863Z" stroke="#E9BE02" stroke-width="1.7" stroke-miterlimit="10" stroke-linecap="round" stroke-linejoin="round"/>
<path d="M57.846 6.30496L53.0198 7.68596L56.3513 19.3285L61.1775 17.9475L57.846 6.30496Z" stroke="#E9BE02" stroke-width="1.7" stroke-miterlimit="10" stroke-linecap="round" stroke-linejoin="round"/>
<path d="M66.9 47.05C65.57 47.43 64.18 46.66 63.8 45.33C63.42 44 64.19 42.61 65.52 42.23C66.85 41.85 68.24 42.62 68.62 43.95C69 45.28 68.23 46.67 66.9 47.05Z" stroke="#E9BE02" stroke-width="1.7" stroke-miterlimit="10" stroke-linecap="round" stroke-linejoin="round"/>
</g>
<defs>
<clipPath id="clip0">
<rect width="75.43" height="54.27" fill="white"/>
</clipPath>
</defs>
</svg>
