<svg width="80" height="53" viewBox="0 0 80 53" fill="none" xmlns="http://www.w3.org/2000/svg">
<g clip-path="url(#clip0)">
<path d="M15.7 46.89H0.850006V3.95H33.71V27.92" stroke="#E9BE02" stroke-width="1.7" stroke-miterlimit="10" stroke-linecap="round" stroke-linejoin="round"/>
<path d="M50.42 28.01H20.98C18.06 28.01 15.7 30.37 15.7 33.29V51.73H55.7V33.29C55.7 30.38 53.34 28.01 50.42 28.01Z" stroke="#E9BE02" stroke-width="1.7" stroke-miterlimit="10" stroke-linecap="round" stroke-linejoin="round"/>
<path d="M5.84 8.94H18.96" stroke="#E9BE02" stroke-width="1.7" stroke-miterlimit="10" stroke-linecap="round" stroke-linejoin="round"/>
<path d="M5.84 13.61H29.56" stroke="#E9BE02" stroke-width="1.7" stroke-miterlimit="10" stroke-linecap="round" stroke-linejoin="round"/>
<path d="M5.84 18.29H29.56" stroke="#E9BE02" stroke-width="1.7" stroke-miterlimit="10" stroke-linecap="round" stroke-linejoin="round"/>
<path d="M5.84 22.96H29.56" stroke="#E9BE02" stroke-width="1.7" stroke-miterlimit="10" stroke-linecap="round" stroke-linejoin="round"/>
<path d="M39.7 20.2V0.849998H76.26V51.73H55.7" stroke="#E9BE02" stroke-width="1.7" stroke-miterlimit="10" stroke-linecap="round" stroke-linejoin="round"/>
<path d="M69.28 0.849998V33.13L64.72 36.11V51.73" stroke="#E9BE02" stroke-width="1.7" stroke-miterlimit="10" stroke-linecap="round" stroke-linejoin="round"/>
<path d="M63.61 7.45H50.68V9.95H63.61V7.45Z" stroke="#E9BE02" stroke-width="1.7" stroke-miterlimit="10" stroke-linecap="round" stroke-linejoin="round"/>
<path d="M78.86 7.45H76.26V12.44H78.86V7.45Z" stroke="#E9BE02" stroke-width="1.7" stroke-miterlimit="10" stroke-linecap="round" stroke-linejoin="round"/>
<path d="M78.86 15.42H76.26V20.41H78.86V15.42Z" stroke="#E9BE02" stroke-width="1.7" stroke-miterlimit="10" stroke-linecap="round" stroke-linejoin="round"/>
<path d="M78.86 23.39H76.26V28.38H78.86V23.39Z" stroke="#E9BE02" stroke-width="1.7" stroke-miterlimit="10" stroke-linecap="round" stroke-linejoin="round"/>
<path d="M55.7 36.25V28.02V25.48C55.7 22.56 53.34 20.2 50.42 20.2H33.71" stroke="#E9BE02" stroke-width="1.7" stroke-miterlimit="10" stroke-linecap="round" stroke-linejoin="round"/>
</g>
<defs>
<clipPath id="clip0">
<rect width="79.71" height="52.58" fill="white"/>
</clipPath>
</defs>
</svg>
