<?xml version="1.0" encoding="UTF-8"?>
<svg xmlns="http://www.w3.org/2000/svg" xmlns:xlink="http://www.w3.org/1999/xlink" width="425.197pt" height="142.06pt" viewBox="0 0 425.197 142.06" version="1.1">
<defs>
<clipPath id="clip1">
  <path d="M 401 55 L 425.195313 55 L 425.195313 84 L 401 84 Z M 401 55 "/>
</clipPath>
<clipPath id="clip2">
  <path d="M 164 101 L 191 101 L 191 142.058594 L 164 142.058594 Z M 164 101 "/>
</clipPath>
</defs>
<g id="surface1">
<path style=" stroke:none;fill-rule:nonzero;fill:rgb(90.99884%,74.499512%,0.799561%);fill-opacity:1;" d="M 36.335938 52.085938 C 37.199219 51.199219 37.1875 49.769531 36.324219 48.898438 L 3.871094 16.445313 C 3.222656 15.804688 2.257813 15.609375 1.402344 15.960938 C 0.550781 16.308594 0 17.132813 0 18.050781 L 0 82.945313 C 0 83.863281 0.542969 84.683594 1.394531 85.035156 C 1.675781 85.160156 1.972656 85.214844 2.269531 85.214844 C 2.847656 85.214844 3.425781 84.984375 3.871094 84.554688 L 36.324219 52.101563 C 36.328125 52.09375 36.332031 52.085938 36.335938 52.085938 M 47.257813 38.992188 C 47.683594 39.417969 48.246094 39.652344 48.84375 39.65625 L 48.851563 39.65625 C 49.335938 39.65625 50.125 39.332031 50.464844 38.996094 L 85.589844 3.867188 C 86.238281 3.21875 86.433594 2.246094 86.078125 1.398438 C 85.726563 0.546875 84.90625 0 83.988281 0 L 13.734375 0 C 12.816406 0 11.996094 0.542969 11.644531 1.390625 C 11.289063 2.234375 11.476563 3.203125 12.128906 3.867188 Z M 97.488281 16.179688 L 97.488281 96.863281 C 97.488281 98.109375 96.472656 99.128906 95.226563 99.128906 L 14.542969 99.128906 C 13.625 99.128906 12.796875 98.578125 12.445313 97.730469 C 12.097656 96.878906 12.289063 95.910156 12.941406 95.253906 L 93.625 14.574219 C 94.269531 13.9375 95.234375 13.734375 96.085938 14.085938 C 96.9375 14.429688 97.488281 15.257813 97.488281 16.179688 "/>
<path style=" stroke:none;fill-rule:nonzero;fill:#fff;fill-opacity:1;" d="M 151.058594 36.332031 L 151.058594 10.722656 L 134.207031 36.332031 L 128.050781 36.332031 L 128.050781 0 L 134.207031 0 L 134.207031 25.609375 L 151.058594 0 L 157.214844 0 L 157.214844 36.332031 "/>
<path style=" stroke:none;fill-rule:nonzero;fill:#fff;fill-opacity:1;" d="M 164.230469 36.332031 L 164.230469 9.082031 L 170.3125 9.082031 L 170.3125 19.832031 L 182.546875 19.832031 L 182.546875 9.082031 L 188.628906 9.082031 L 188.628906 36.332031 L 182.546875 36.332031 L 182.546875 25.53125 L 170.3125 25.53125 L 170.3125 36.332031 "/>
<path style=" stroke:none;fill-rule:nonzero;fill:#fff;fill-opacity:1;" d="M 206.769531 37.089844 C 203.960938 37.089844 201.5625 36.464844 199.578125 35.210938 C 197.59375 33.957031 196.074219 32.246094 195.023438 30.074219 C 193.972656 27.90625 193.4375 25.449219 193.421875 22.707031 C 193.4375 19.914063 193.988281 17.4375 195.074219 15.277344 C 196.160156 13.117188 197.703125 11.417969 199.703125 10.179688 C 201.703125 8.945313 204.085938 8.324219 206.84375 8.324219 C 209.9375 8.324219 212.558594 9.105469 214.703125 10.660156 C 216.851563 12.214844 218.25 14.339844 218.90625 17.03125 L 212.851563 18.671875 C 212.378906 17.207031 211.597656 16.066406 210.503906 15.253906 C 209.410156 14.4375 208.164063 14.027344 206.769531 14.027344 C 205.1875 14.027344 203.882813 14.402344 202.855469 15.152344 C 201.832031 15.898438 201.074219 16.929688 200.585938 18.242188 C 200.101563 19.554688 199.855469 21.042969 199.855469 22.707031 C 199.855469 25.296875 200.4375 27.390625 201.597656 28.988281 C 202.757813 30.589844 204.480469 31.386719 206.769531 31.386719 C 208.382813 31.386719 209.65625 31.015625 210.589844 30.277344 C 211.523438 29.535156 212.226563 28.46875 212.699219 27.070313 L 218.90625 28.460938 C 218.0625 31.234375 216.589844 33.367188 214.488281 34.855469 C 212.386719 36.34375 209.8125 37.089844 206.769531 37.089844 "/>
<path style=" stroke:none;fill-rule:nonzero;fill:#fff;fill-opacity:1;" d="M 230.636719 36.332031 L 230.636719 14.480469 L 221.53125 14.480469 L 221.53125 9.082031 L 245.824219 9.082031 L 245.824219 14.480469 L 236.71875 14.480469 L 236.71875 36.332031 "/>
<path style=" stroke:none;fill-rule:nonzero;fill:#fff;fill-opacity:1;" d="M 274.234375 9.082031 L 274.234375 36.332031 L 268.40625 36.332031 L 268.40625 18.542969 L 255.4375 36.332031 L 250.566406 36.332031 L 250.566406 9.082031 L 256.394531 9.082031 L 256.394531 26.414063 L 269.414063 9.082031 "/>
<path style=" stroke:none;fill-rule:nonzero;fill:#fff;fill-opacity:1;" d="M 312.785156 48.441406 L 318.03125 34.035156 L 318.132813 38.273438 L 306.25 9.082031 L 312.582031 9.082031 L 321.007813 30.679688 L 319.394531 30.679688 L 327.59375 9.082031 L 333.675781 9.082031 L 318.484375 48.441406 "/>
<path style=" stroke:none;fill-rule:nonzero;fill:#fff;fill-opacity:1;" d="M 288.136719 36.332031 L 288.136719 14.480469 L 279.027344 14.480469 L 279.027344 9.082031 L 303.324219 9.082031 L 303.324219 14.480469 L 294.21875 14.480469 L 294.21875 36.332031 "/>
<path style=" stroke:none;fill-rule:nonzero;fill:#fff;fill-opacity:1;" d="M 345.707031 36.332031 L 345.707031 14.480469 L 336.597656 14.480469 L 336.597656 9.082031 L 360.894531 9.082031 L 360.894531 14.480469 L 351.789063 14.480469 L 351.789063 36.332031 "/>
<path style=" stroke:none;fill-rule:nonzero;fill:#fff;fill-opacity:1;" d="M 134.710938 83.140625 L 139.503906 73.351563 L 126.964844 46.808594 L 133.828125 46.808594 L 142.683594 66.941406 L 151.816406 46.808594 L 158.300781 46.808594 L 141.195313 83.140625 "/>
<path style=" stroke:none;fill-rule:nonzero;fill:#fff;fill-opacity:1;" d="M 160.730469 83.140625 L 160.730469 55.890625 L 184.398438 55.890625 L 184.398438 83.140625 L 178.316406 83.140625 L 178.316406 61.59375 L 166.8125 61.59375 L 166.8125 83.140625 "/>
<path style=" stroke:none;fill-rule:nonzero;fill:#fff;fill-opacity:1;" d="M 203.621094 78.449219 C 205.203125 78.449219 206.507813 78.054688 207.53125 77.261719 C 208.558594 76.472656 209.320313 75.398438 209.816406 74.046875 C 210.3125 72.691406 210.5625 71.183594 210.5625 69.515625 C 210.5625 67.867188 210.308594 66.367188 209.804688 65.011719 C 209.300781 63.660156 208.519531 62.582031 207.457031 61.785156 C 206.398438 60.984375 205.050781 60.585938 203.421875 60.585938 C 201.871094 60.585938 200.613281 60.957031 199.636719 61.707031 C 198.660156 62.457031 197.941406 63.5 197.480469 64.835938 C 197.015625 66.171875 196.785156 67.734375 196.785156 69.515625 C 196.785156 71.28125 197.015625 72.839844 197.480469 74.183594 C 197.941406 75.53125 198.671875 76.578125 199.671875 77.324219 C 200.675781 78.074219 201.992188 78.449219 203.621094 78.449219 M 204.554688 83.898438 C 201.898438 83.898438 199.671875 83.269531 197.871094 82.003906 C 196.070313 80.742188 194.714844 79.023438 193.808594 76.847656 C 192.898438 74.667969 192.445313 72.226563 192.445313 69.515625 C 192.445313 66.777344 192.898438 64.320313 193.808594 62.148438 C 194.714844 59.980469 196.046875 58.269531 197.808594 57.015625 C 199.5625 55.761719 201.738281 55.136719 204.328125 55.136719 C 206.902344 55.136719 209.136719 55.761719 211.027344 57.015625 C 212.921875 58.269531 214.386719 59.976563 215.429688 62.136719 C 216.472656 64.296875 216.996094 66.757813 216.996094 69.515625 C 216.996094 72.242188 216.480469 74.6875 215.457031 76.859375 C 214.429688 79.027344 212.980469 80.742188 211.117188 82.003906 C 209.246094 83.269531 207.0625 83.898438 204.554688 83.898438 M 191.410156 95.25 L 191.410156 55.890625 L 196.785156 55.890625 L 196.785156 75.015625 L 197.542969 75.015625 L 197.542969 95.25 "/>
<path style=" stroke:none;fill-rule:nonzero;fill:#fff;fill-opacity:1;" d="M 231.378906 79.054688 C 232.753906 79.054688 233.933594 78.808594 234.910156 78.324219 C 235.882813 77.835938 236.664063 77.238281 237.242188 76.53125 C 237.824219 75.824219 238.214844 75.160156 238.417969 74.535156 C 238.734375 73.765625 238.917969 72.875 238.960938 71.875 C 239.003906 70.875 239.023438 70.0625 239.023438 69.441406 L 240.890625 69.996094 C 239.054688 70.28125 237.480469 70.535156 236.171875 70.753906 C 234.859375 70.972656 233.730469 71.179688 232.789063 71.371094 C 231.847656 71.566406 231.015625 71.78125 230.292969 72.015625 C 229.585938 72.269531 228.988281 72.5625 228.5 72.898438 C 228.015625 73.234375 227.640625 73.621094 227.378906 74.058594 C 227.117188 74.496094 226.988281 75.011719 226.988281 75.597656 C 226.988281 76.269531 227.152344 76.863281 227.492188 77.375 C 227.828125 77.890625 228.320313 78.296875 228.96875 78.601563 C 229.613281 78.902344 230.417969 79.054688 231.378906 79.054688 M 230.164063 83.898438 C 228.199219 83.898438 226.535156 83.523438 225.171875 82.777344 C 223.808594 82.027344 222.777344 81.03125 222.078125 79.785156 C 221.378906 78.539063 221.03125 77.167969 221.03125 75.671875 C 221.03125 74.359375 221.253906 73.179688 221.6875 72.128906 C 222.128906 71.078125 222.796875 70.167969 223.707031 69.402344 C 224.613281 68.636719 225.792969 68.011719 227.238281 67.523438 C 228.335938 67.167969 229.613281 66.851563 231.085938 66.566406 C 232.558594 66.277344 234.15625 66.015625 235.878906 65.769531 C 237.605469 65.527344 239.410156 65.261719 241.292969 64.976563 L 239.121094 66.210938 C 239.140625 64.328125 238.71875 62.941406 237.859375 62.046875 C 237.003906 61.15625 235.558594 60.710938 233.523438 60.710938 C 232.292969 60.710938 231.105469 60.996094 229.964844 61.570313 C 228.820313 62.140625 228.023438 63.125 227.566406 64.519531 L 222.015625 62.78125 C 222.6875 60.476563 223.972656 58.625 225.863281 57.230469 C 227.757813 55.832031 230.308594 55.136719 233.523438 55.136719 C 235.941406 55.136719 238.074219 55.53125 239.917969 56.320313 C 241.757813 57.113281 243.128906 58.40625 244.019531 60.207031 C 244.503906 61.164063 244.800781 62.144531 244.902344 63.144531 C 245.003906 64.148438 245.050781 65.234375 245.050781 66.414063 L 245.050781 83.140625 L 239.730469 83.140625 L 239.730469 77.238281 L 240.609375 78.195313 C 239.382813 80.164063 237.949219 81.605469 236.308594 82.523438 C 234.671875 83.441406 232.621094 83.898438 230.164063 83.898438 "/>
<path style=" stroke:none;fill-rule:nonzero;fill:#fff;fill-opacity:1;" d="M 257.71875 78.449219 L 264.53125 78.449219 C 264.882813 78.449219 265.269531 78.414063 265.691406 78.347656 C 266.109375 78.28125 266.488281 78.1875 266.824219 78.070313 C 267.433594 77.851563 267.871094 77.464844 268.148438 76.910156 C 268.429688 76.355469 268.566406 75.773438 268.566406 75.167969 C 268.566406 74.34375 268.359375 73.683594 267.949219 73.1875 C 267.535156 72.691406 267.042969 72.359375 266.472656 72.191406 C 266.136719 72.058594 265.769531 71.976563 265.375 71.949219 C 264.980469 71.925781 264.65625 71.914063 264.402344 71.914063 L 257.71875 71.914063 Z M 257.71875 67.144531 L 262.765625 67.144531 C 263.285156 67.144531 263.792969 67.117188 264.289063 67.058594 C 264.785156 66.996094 265.203125 66.894531 265.539063 66.742188 C 266.09375 66.523438 266.5 66.152344 266.761719 65.628906 C 267.023438 65.109375 267.152344 64.53125 267.152344 63.890625 C 267.152344 63.21875 267.007813 62.609375 266.714844 62.0625 C 266.417969 61.515625 265.949219 61.148438 265.3125 60.960938 C 264.890625 60.796875 264.382813 60.703125 263.785156 60.6875 C 263.1875 60.667969 262.804688 60.660156 262.636719 60.660156 L 257.71875 60.660156 Z M 251.5625 83.140625 L 251.5625 55.890625 L 263.949219 55.890625 C 264.839844 55.890625 265.675781 55.941406 266.445313 56.042969 C 267.21875 56.144531 267.886719 56.269531 268.441406 56.421875 C 269.753906 56.808594 270.914063 57.5625 271.921875 58.679688 C 272.933594 59.796875 273.4375 61.339844 273.4375 63.308594 C 273.4375 64.46875 273.25 65.425781 272.882813 66.171875 C 272.511719 66.921875 272.023438 67.546875 271.417969 68.054688 C 271.132813 68.289063 270.839844 68.492188 270.535156 68.660156 C 270.230469 68.828125 269.929688 68.960938 269.628906 69.0625 C 270.28125 69.164063 270.90625 69.355469 271.492188 69.644531 C 272.417969 70.097656 273.195313 70.769531 273.828125 71.660156 C 274.457031 72.554688 274.773438 73.804688 274.773438 75.421875 C 274.773438 77.253906 274.332031 78.796875 273.449219 80.050781 C 272.566406 81.304688 271.273438 82.171875 269.574219 82.660156 C 268.953125 82.828125 268.238281 82.953125 267.433594 83.027344 C 266.625 83.101563 265.800781 83.140625 264.960938 83.140625 "/>
<path style=" stroke:none;fill-rule:nonzero;fill:#fff;fill-opacity:1;" d="M 278.464844 83.140625 L 278.464844 78.046875 C 279.457031 78.230469 280.222656 78.207031 280.761719 77.980469 C 281.296875 77.753906 281.703125 77.320313 281.972656 76.683594 C 282.238281 76.042969 282.476563 75.191406 282.679688 74.132813 C 282.945313 72.636719 283.1875 70.914063 283.398438 68.960938 C 283.605469 67.011719 283.792969 64.925781 283.953125 62.703125 C 284.113281 60.484375 284.257813 58.214844 284.394531 55.890625 L 304.453125 55.890625 L 304.453125 83.140625 L 298.398438 83.140625 L 298.398438 61.59375 L 289.742188 61.59375 C 289.65625 62.6875 289.558594 63.910156 289.441406 65.265625 C 289.320313 66.621094 289.195313 67.984375 289.0625 69.363281 C 288.925781 70.746094 288.777344 72.054688 288.621094 73.289063 C 288.460938 74.523438 288.296875 75.582031 288.128906 76.457031 C 287.738281 78.421875 287.191406 79.980469 286.476563 81.125 C 285.757813 82.265625 284.765625 83.003906 283.484375 83.332031 C 282.207031 83.65625 280.53125 83.59375 278.464844 83.140625 "/>
<path style=" stroke:none;fill-rule:nonzero;fill:#fff;fill-opacity:1;" d="M 313.351563 66.613281 L 332.097656 66.613281 L 332.097656 71.207031 L 313.351563 71.207031 Z M 322.734375 83.898438 C 319.976563 83.898438 317.554688 83.300781 315.46875 82.105469 C 313.382813 80.914063 311.757813 79.253906 310.589844 77.136719 C 309.417969 75.015625 308.835938 72.578125 308.835938 69.820313 C 308.835938 66.84375 309.40625 64.257813 310.550781 62.0625 C 311.691406 59.867188 313.28125 58.164063 315.316406 56.953125 C 317.355469 55.742188 319.707031 55.136719 322.382813 55.136719 C 325.207031 55.136719 327.609375 55.796875 329.585938 57.117188 C 331.5625 58.4375 333.03125 60.300781 333.988281 62.703125 C 334.949219 65.109375 335.308594 67.945313 335.074219 71.207031 L 329.042969 71.207031 L 329.042969 68.988281 C 329.027344 66.027344 328.503906 63.863281 327.480469 62.503906 C 326.453125 61.140625 324.839844 60.457031 322.636719 60.457031 C 320.144531 60.457031 318.296875 61.226563 317.085938 62.765625 C 315.875 64.304688 315.269531 66.554688 315.269531 69.515625 C 315.269531 72.273438 315.875 74.410156 317.085938 75.925781 C 318.296875 77.4375 320.0625 78.195313 322.382813 78.195313 C 323.878906 78.195313 325.171875 77.863281 326.253906 77.199219 C 327.339844 76.535156 328.175781 75.574219 328.765625 74.308594 L 334.769531 76.125 C 333.730469 78.582031 332.117188 80.492188 329.941406 81.855469 C 327.761719 83.21875 325.359375 83.898438 322.734375 83.898438 "/>
<path style=" stroke:none;fill-rule:nonzero;fill:#fff;fill-opacity:1;" d="M 340.675781 83.140625 L 340.675781 55.890625 L 346.757813 55.890625 L 346.757813 66.640625 L 358.992188 66.640625 L 358.992188 55.890625 L 365.070313 55.890625 L 365.070313 83.140625 L 358.992188 83.140625 L 358.992188 72.34375 L 346.757813 72.34375 L 346.757813 83.140625 "/>
<path style=" stroke:none;fill-rule:nonzero;fill:#fff;fill-opacity:1;" d="M 395.753906 55.890625 L 395.753906 83.140625 L 389.925781 83.140625 L 389.925781 65.351563 L 376.957031 83.140625 L 372.085938 83.140625 L 372.085938 55.890625 L 377.914063 55.890625 L 377.914063 73.226563 L 390.933594 55.890625 "/>
<g clip-path="url(#clip1)" clip-rule="nonzero">
<path style=" stroke:none;fill-rule:nonzero;fill:#fff;fill-opacity:1;" d="M 413.617188 69.289063 L 419.117188 69.289063 L 419.117188 60.660156 L 413.617188 60.660156 C 413.296875 60.660156 412.910156 60.675781 412.453125 60.710938 C 412 60.746094 411.546875 60.820313 411.09375 60.9375 C 410.605469 61.089844 410.140625 61.351563 409.707031 61.71875 C 409.265625 62.089844 408.90625 62.554688 408.621094 63.109375 C 408.335938 63.664063 408.191406 64.292969 408.191406 65 C 408.191406 66.058594 408.5 66.9375 409.113281 67.636719 C 409.726563 68.335938 410.445313 68.800781 411.269531 69.035156 C 411.671875 69.136719 412.089844 69.207031 412.519531 69.238281 C 412.945313 69.273438 413.3125 69.289063 413.617188 69.289063 M 419.117188 83.140625 L 419.117188 74.058594 L 414.246094 74.058594 C 413.625 74.058594 412.847656 74.042969 411.914063 74.007813 C 410.980469 73.972656 410.109375 73.890625 409.300781 73.753906 C 407.199219 73.367188 405.457031 72.445313 404.078125 70.992188 C 402.699219 69.539063 402.011719 67.558594 402.011719 65.050781 C 402.011719 62.59375 402.664063 60.617188 403.976563 59.121094 C 405.289063 57.625 406.996094 56.664063 409.097656 56.246094 C 409.972656 56.058594 410.878906 55.957031 411.8125 55.929688 C 412.746094 55.902344 413.523438 55.890625 414.144531 55.890625 L 425.195313 55.890625 L 425.195313 83.140625 Z M 401.304688 83.140625 L 407.8125 72.722656 L 414.144531 72.722656 L 407.6875 83.140625 Z M 401.304688 83.140625 "/>
</g>
<path style=" stroke:none;fill-rule:nonzero;fill:#fff;fill-opacity:1;" d="M 127.910156 129.949219 L 127.910156 93.617188 L 157.355469 93.617188 L 157.355469 129.949219 L 151.273438 129.949219 L 151.273438 99.320313 L 133.992188 99.320313 L 133.992188 129.949219 "/>
<g clip-path="url(#clip2)" clip-rule="nonzero">
<path style=" stroke:none;fill-rule:nonzero;fill:#fff;fill-opacity:1;" d="M 176.71875 125.257813 C 178.300781 125.257813 179.601563 124.859375 180.628906 124.070313 C 181.65625 123.28125 182.417969 122.207031 182.914063 120.855469 C 183.410156 119.5 183.65625 117.988281 183.65625 116.324219 C 183.65625 114.675781 183.40625 113.175781 182.902344 111.820313 C 182.394531 110.46875 181.613281 109.390625 180.554688 108.589844 C 179.492188 107.792969 178.148438 107.394531 176.515625 107.394531 C 174.96875 107.394531 173.707031 107.769531 172.734375 108.515625 C 171.757813 109.265625 171.039063 110.308594 170.574219 111.644531 C 170.113281 112.980469 169.882813 114.542969 169.882813 116.324219 C 169.882813 118.089844 170.113281 119.648438 170.574219 120.992188 C 171.039063 122.339844 171.769531 123.386719 172.769531 124.132813 C 173.769531 124.882813 175.085938 125.257813 176.71875 125.257813 M 177.652344 130.707031 C 174.996094 130.707031 172.765625 130.074219 170.96875 128.8125 C 169.167969 127.550781 167.8125 125.832031 166.902344 123.652344 C 165.996094 121.476563 165.542969 119.03125 165.542969 116.324219 C 165.542969 113.582031 165.996094 111.125 166.902344 108.957031 C 167.8125 106.785156 169.144531 105.074219 170.902344 103.820313 C 172.660156 102.570313 174.835938 101.945313 177.425781 101.945313 C 180 101.945313 182.230469 102.570313 184.125 103.820313 C 186.015625 105.074219 187.484375 106.78125 188.527344 108.945313 C 189.570313 111.105469 190.089844 113.566406 190.089844 116.324219 C 190.089844 119.050781 189.578125 121.496094 188.550781 123.667969 C 187.527344 125.835938 186.078125 127.550781 184.214844 128.8125 C 182.34375 130.074219 180.160156 130.707031 177.652344 130.707031 M 164.507813 142.058594 L 164.507813 102.699219 L 169.882813 102.699219 L 169.882813 121.824219 L 170.636719 121.824219 L 170.636719 142.058594 "/>
</g>
<path style=" stroke:none;fill-rule:nonzero;fill:#fff;fill-opacity:1;" d="M 207.679688 125.003906 C 210.101563 125.003906 211.898438 124.195313 213.078125 122.582031 C 214.253906 120.96875 214.84375 118.882813 214.84375 116.324219 C 214.84375 113.683594 214.246094 111.578125 213.054688 110.003906 C 211.859375 108.433594 210.066406 107.644531 207.679688 107.644531 C 206.046875 107.644531 204.703125 108.011719 203.652344 108.742188 C 202.601563 109.476563 201.824219 110.492188 201.320313 111.796875 C 200.816406 113.097656 200.5625 114.609375 200.5625 116.324219 C 200.5625 118.964844 201.164063 121.070313 202.367188 122.644531 C 203.570313 124.21875 205.339844 125.003906 207.679688 125.003906 M 207.679688 130.707031 C 204.953125 130.707031 202.570313 130.09375 200.535156 128.863281 C 198.503906 127.636719 196.925781 125.941406 195.804688 123.78125 C 194.6875 121.617188 194.128906 119.132813 194.128906 116.324219 C 194.128906 113.464844 194.699219 110.960938 195.84375 108.804688 C 196.988281 106.652344 198.578125 104.96875 200.613281 103.761719 C 202.648438 102.546875 205.003906 101.941406 207.679688 101.941406 C 210.421875 101.941406 212.808594 102.558594 214.84375 103.785156 C 216.878906 105.011719 218.460938 106.707031 219.589844 108.867188 C 220.714844 111.03125 221.277344 113.515625 221.277344 116.324219 C 221.277344 119.148438 220.710938 121.644531 219.574219 123.804688 C 218.4375 125.96875 216.855469 127.65625 214.816406 128.878906 C 212.78125 130.097656 210.402344 130.707031 207.679688 130.707031 "/>
<path style=" stroke:none;fill-rule:nonzero;fill:#fff;fill-opacity:1;" d="M 229.828125 113.421875 L 248.574219 113.421875 L 248.574219 118.015625 L 229.828125 118.015625 Z M 239.214844 130.707031 C 236.457031 130.707031 234.035156 130.109375 231.949219 128.914063 C 229.863281 127.71875 228.234375 126.0625 227.066406 123.945313 C 225.898438 121.824219 225.3125 119.386719 225.3125 116.628906 C 225.3125 113.648438 225.886719 111.0625 227.027344 108.867188 C 228.171875 106.675781 229.761719 104.96875 231.796875 103.761719 C 233.832031 102.546875 236.1875 101.941406 238.863281 101.941406 C 241.6875 101.941406 244.089844 102.601563 246.066406 103.921875 C 248.042969 105.246094 249.511719 107.105469 250.46875 109.511719 C 251.429688 111.917969 251.789063 114.753906 251.554688 118.015625 L 245.523438 118.015625 L 245.523438 115.792969 C 245.507813 112.835938 244.984375 110.671875 243.960938 109.308594 C 242.933594 107.949219 241.316406 107.265625 239.113281 107.265625 C 236.625 107.265625 234.773438 108.035156 233.5625 109.574219 C 232.355469 111.113281 231.746094 113.363281 231.746094 116.324219 C 231.746094 119.082031 232.355469 121.21875 233.5625 122.734375 C 234.773438 124.246094 236.542969 125.003906 238.863281 125.003906 C 240.359375 125.003906 241.652344 124.671875 242.734375 124.007813 C 243.820313 123.34375 244.65625 122.378906 245.246094 121.117188 L 251.25 122.933594 C 250.207031 125.390625 248.597656 127.300781 246.417969 128.664063 C 244.242188 130.023438 241.839844 130.707031 239.214844 130.707031 "/>
<path style=" stroke:none;fill-rule:nonzero;fill:#fff;fill-opacity:1;" d="M 257.15625 129.949219 L 257.203125 102.699219 L 263.363281 102.699219 L 263.363281 115.820313 L 273.328125 102.699219 L 280.921875 102.699219 L 270.351563 116.324219 L 281.832031 129.949219 L 273.78125 129.949219 L 263.363281 116.828125 L 263.363281 129.949219 "/>
<path style=" stroke:none;fill-rule:nonzero;fill:#fff;fill-opacity:1;" d="M 292.359375 129.949219 L 292.359375 108.097656 L 283.253906 108.097656 L 283.253906 102.699219 L 307.546875 102.699219 L 307.546875 108.097656 L 298.441406 108.097656 L 298.441406 129.949219 "/>
<path style=" stroke:none;fill-rule:nonzero;fill:#fff;fill-opacity:1;" d="M 320.539063 125.863281 C 321.921875 125.863281 323.097656 125.617188 324.074219 125.132813 C 325.050781 124.644531 325.828125 124.046875 326.40625 123.339844 C 326.988281 122.632813 327.378906 121.96875 327.582031 121.34375 C 327.898438 120.570313 328.082031 119.683594 328.125 118.683594 C 328.164063 117.683594 328.1875 116.871094 328.1875 116.25 L 330.054688 116.804688 C 328.222656 117.089844 326.648438 117.34375 325.335938 117.5625 C 324.023438 117.78125 322.898438 117.984375 321.953125 118.179688 C 321.011719 118.371094 320.179688 118.585938 319.457031 118.824219 C 318.75 119.074219 318.152344 119.371094 317.664063 119.703125 C 317.179688 120.042969 316.804688 120.429688 316.542969 120.867188 C 316.28125 121.304688 316.152344 121.816406 316.152344 122.40625 C 316.152344 123.078125 316.320313 123.671875 316.65625 124.183594 C 316.992188 124.695313 317.484375 125.105469 318.132813 125.40625 C 318.777344 125.710938 319.582031 125.863281 320.539063 125.863281 M 319.332031 130.707031 C 317.363281 130.707031 315.699219 130.332031 314.335938 129.582031 C 312.972656 128.835938 311.941406 127.839844 311.246094 126.59375 C 310.546875 125.347656 310.195313 123.976563 310.195313 122.480469 C 310.195313 121.167969 310.414063 119.988281 310.851563 118.9375 C 311.289063 117.886719 311.964844 116.976563 312.871094 116.210938 C 313.777344 115.445313 314.957031 114.820313 316.402344 114.332031 C 317.496094 113.976563 318.777344 113.660156 320.253906 113.371094 C 321.722656 113.085938 323.320313 112.820313 325.046875 112.578125 C 326.769531 112.332031 328.574219 112.070313 330.457031 111.78125 L 328.285156 113.019531 C 328.304688 111.136719 327.882813 109.746094 327.023438 108.855469 C 326.167969 107.964844 324.722656 107.519531 322.6875 107.519531 C 321.460938 107.519531 320.273438 107.804688 319.128906 108.378906 C 317.984375 108.949219 317.1875 109.933594 316.730469 111.328125 L 311.179688 109.589844 C 311.851563 107.28125 313.136719 105.433594 315.027344 104.035156 C 316.921875 102.640625 319.472656 101.945313 322.6875 101.945313 C 325.109375 101.945313 327.238281 102.339844 329.082031 103.128906 C 330.925781 103.917969 332.289063 105.214844 333.183594 107.015625 C 333.671875 107.972656 333.964844 108.953125 334.066406 109.953125 C 334.167969 110.953125 334.21875 112.042969 334.21875 113.222656 L 334.21875 129.949219 L 328.894531 129.949219 L 328.894531 124.046875 L 329.777344 125.003906 C 328.546875 126.972656 327.113281 128.414063 325.476563 129.332031 C 323.835938 130.246094 321.785156 130.707031 319.332031 130.707031 "/>
<path style=" stroke:none;fill-rule:nonzero;fill:#fff;fill-opacity:1;" d="M 340.726563 129.949219 L 340.726563 102.699219 L 345.722656 102.699219 L 355.484375 121.519531 L 365.277344 102.699219 L 370.246094 102.699219 L 370.246094 129.949219 L 364.441406 129.949219 L 364.441406 114.9375 L 356.699219 129.949219 L 354.300781 129.949219 L 346.554688 114.9375 L 346.554688 129.949219 "/>
<path style=" stroke:none;fill-rule:nonzero;fill:#fff;fill-opacity:1;" d="M 400.925781 102.699219 L 400.925781 129.949219 L 395.097656 129.949219 L 395.097656 112.160156 L 382.128906 129.949219 L 377.261719 129.949219 L 377.261719 102.699219 L 383.089844 102.699219 L 383.089844 120.035156 L 396.109375 102.699219 "/>
</g>
</svg>
