<svg width="388" height="23" viewBox="0 0 388 23" fill="none" xmlns="http://www.w3.org/2000/svg">
<g clip-path="url(#clip0)">
<path d="M34.2293 17.7974H31.4213V2.14935H34.2293V12.9965L41.5056 2.14935H44.3136V17.7773H41.5056V6.93014L34.2293 17.7974ZM49.7042 13.1773H54.9513V17.7773H57.7184V6.06638H54.9308V10.6463H49.6837V6.06638H46.9372V17.7974H49.7042V13.1773ZM62.4121 17.3153C63.2934 17.8577 64.3387 18.1188 65.5685 18.1188C66.9213 18.1188 68.0691 17.7974 68.9915 17.1345C69.9138 16.4917 70.5697 15.5476 70.9181 14.3424L68.1101 13.7397C67.9052 14.3223 67.6182 14.7843 67.2288 15.0856C66.8393 15.407 66.2859 15.5476 65.589 15.5476C64.6257 15.5476 63.8878 15.2061 63.3959 14.5432C62.904 13.8804 62.658 12.9965 62.6375 11.9118C62.6375 11.2087 62.74 10.586 62.945 10.0437C63.1499 9.48123 63.4779 9.0594 63.9083 8.738C64.3388 8.43669 64.9127 8.27599 65.589 8.27599C66.1834 8.27599 66.7164 8.45678 67.1878 8.79826C67.6592 9.13975 67.9871 9.62184 68.1716 10.2445L70.9386 9.52141C70.6722 8.35634 70.0573 7.43232 69.1145 6.74935C68.1716 6.06638 67.0033 5.7249 65.63 5.7249C64.4207 5.7249 63.3754 5.98603 62.4941 6.52839C61.6127 7.05066 60.9363 7.79389 60.4444 8.71791C59.9525 9.64193 59.727 10.7066 59.727 11.9118C59.727 13.097 59.9525 14.1415 60.4239 15.0856C60.8748 16.0297 61.5307 16.7729 62.4121 17.3153ZM75.6324 17.7974H78.3994V8.45678H82.3757V6.06638H71.656V8.45678H75.6324V17.7974ZM91.8451 10.2646V17.7974H94.4892V6.06638H92.2961L86.6595 13.3782V6.06638H84.0359V17.7974H86.2496L91.8451 10.2646ZM100.126 17.7974H102.893V8.45678H106.869V6.14673L111.665 17.717L109.698 23H112.28L118.983 6.06638H116.216L113.018 14.3424L109.739 6.06638H106.89H106.849H96.1494V8.45678H100.126V17.7974ZM123.164 17.7974H125.931V8.45678H129.907V6.06638H119.188V8.45678H123.164V17.7974ZM140.115 17.7974H143.066L150.588 2.16944H147.637L143.701 10.6865L139.889 2.16944H136.753L142.246 13.5389L140.115 17.7974ZM154.503 8.59739H159.443V17.7773H162.189V6.06638H151.716V17.7974H154.483V8.59739H154.503ZM167.621 23H164.833V6.06638H167.273V6.91005C167.395 6.78953 167.498 6.64892 167.641 6.54848C168.42 6.00612 169.363 5.7249 170.49 5.7249C171.638 5.7249 172.622 5.98603 173.462 6.52839C174.303 7.07075 174.959 7.79389 175.41 8.71791C175.861 9.64193 176.107 10.7066 176.107 11.9118C176.107 13.0769 175.881 14.1415 175.43 15.0655C174.979 15.9895 174.344 16.7328 173.524 17.2751C172.704 17.8175 171.741 18.0987 170.634 18.0987C169.466 18.0987 168.482 17.8376 167.682 17.2751C167.662 17.255 167.641 17.2149 167.6 17.1948V23H167.621ZM167.293 11.9319C167.293 12.6751 167.395 13.338 167.58 13.9004C167.764 14.4629 168.092 14.9048 168.523 15.2262C168.953 15.5476 169.527 15.7083 170.224 15.7083C170.9 15.7083 171.474 15.5476 171.905 15.2061C172.335 14.8646 172.663 14.4227 172.889 13.8402C173.094 13.2777 173.217 12.6349 173.217 11.9319C173.217 11.2288 173.114 10.6061 172.889 10.0437C172.663 9.48123 172.335 9.01922 171.884 8.67774C171.413 8.33625 170.818 8.15547 170.122 8.15547C169.466 8.15547 168.912 8.31616 168.502 8.61748C168.092 8.93887 167.785 9.38079 167.58 9.94324C167.395 10.5258 167.293 11.1887 167.293 11.9319ZM181.456 18.1188C180.575 18.1188 179.857 17.9581 179.263 17.6367C178.669 17.3153 178.218 16.8935 177.91 16.3511C177.603 15.8087 177.459 15.2262 177.459 14.5633C177.459 14.0009 177.541 13.4987 177.726 13.0568C177.91 12.6149 178.197 12.2131 178.587 11.8917C178.976 11.5502 179.488 11.2891 180.124 11.0681C180.595 10.9074 181.149 10.7668 181.784 10.6463C182.419 10.5258 183.116 10.4052 183.895 10.3048C184.326 10.2445 184.818 10.1642 185.289 10.1039C185.227 9.54149 185.105 9.07948 184.797 8.77817C184.428 8.4166 183.813 8.21573 182.932 8.21573C182.419 8.21573 181.928 8.33625 181.436 8.5773C180.944 8.81835 180.595 9.2201 180.39 9.80263L177.869 9.01922C178.177 8.03494 178.73 7.25154 179.57 6.64892C180.411 6.0463 181.538 5.74499 182.952 5.74499C184.018 5.74499 184.941 5.90568 185.76 6.24717C186.58 6.58865 187.175 7.13101 187.585 7.91442C187.81 8.33625 187.933 8.75809 187.974 9.17992C188.015 9.60176 188.036 10.0839 188.036 10.6061V17.7974H185.617V16.1904C185.166 16.7528 184.674 17.2349 184.121 17.5363C183.403 17.9179 182.522 18.1188 181.456 18.1188ZM181.005 15.7887C181.272 15.9092 181.62 15.9694 182.01 15.9694C182.604 15.9694 183.096 15.869 183.506 15.6681C183.916 15.4673 184.244 15.2061 184.49 14.9249C184.736 14.6437 184.9 14.3825 185.002 14.1214C185.146 13.8 185.227 13.4183 185.248 12.9965C185.268 12.7354 185.268 12.5144 185.268 12.3135C184.797 12.3939 184.367 12.4542 184.018 12.5144C183.444 12.6149 182.973 12.6952 182.583 12.7756C182.194 12.8559 181.846 12.9363 181.538 13.0568C181.231 13.1773 180.985 13.2978 180.78 13.4384C180.575 13.579 180.411 13.7397 180.308 13.9205C180.206 14.1013 180.144 14.3022 180.144 14.5432C180.144 14.8245 180.206 15.0655 180.349 15.2865C180.513 15.4873 180.718 15.6681 181.005 15.7887ZM196.357 17.7974H190.434V6.06638H195.927C196.337 6.06638 196.706 6.08647 197.054 6.12665C197.382 6.16682 197.669 6.22708 197.915 6.30743C198.489 6.46813 198.981 6.78953 199.432 7.25154C199.883 7.73363 200.088 8.39651 200.088 9.26027C200.088 9.76245 200.006 10.1843 199.842 10.5057C199.678 10.8271 199.452 11.0882 199.186 11.3092C199.083 11.4096 198.94 11.49 198.817 11.5502C198.694 11.6306 198.55 11.6708 198.427 11.7109C198.714 11.7511 199.001 11.8314 199.268 11.952C199.657 12.1328 200.006 12.4341 200.292 12.7956C200.579 13.1773 200.723 13.7197 200.723 14.4227C200.723 15.2061 200.518 15.869 200.128 16.4114C199.739 16.9537 199.165 17.3354 198.407 17.5363C198.14 17.6166 197.833 17.6769 197.464 17.697C197.095 17.7773 196.747 17.7974 196.357 17.7974ZM193.262 10.8673H195.373C195.599 10.8673 195.824 10.8472 196.029 10.8271C196.255 10.807 196.419 10.7467 196.583 10.6865C196.808 10.586 196.972 10.4454 197.095 10.2245C197.197 10.0035 197.259 9.78254 197.259 9.52141C197.259 9.24018 197.197 8.97905 197.075 8.75809C196.952 8.53713 196.747 8.37643 196.48 8.29608C196.296 8.23582 196.07 8.19564 195.824 8.19564C195.558 8.19564 195.394 8.17555 195.332 8.17555H193.262V10.8673ZM196.173 15.7083C196.316 15.7083 196.501 15.6882 196.665 15.6681C196.849 15.628 196.993 15.5878 197.136 15.5476C197.402 15.4673 197.587 15.3066 197.689 15.0655C197.792 14.8245 197.853 14.5834 197.853 14.3424C197.853 14.0009 197.771 13.7397 197.607 13.5188C197.443 13.3179 197.238 13.1773 197.013 13.097C196.87 13.0367 196.706 12.9965 196.542 12.9965C196.378 12.9764 196.234 12.9764 196.111 12.9764H193.242V15.7083H196.173ZM203.613 17.8777C204.187 17.7371 204.638 17.4157 204.966 16.9135C205.294 16.4114 205.54 15.7284 205.704 14.8446C205.786 14.483 205.847 14.021 205.929 13.4987C205.991 12.9764 206.072 12.414 206.113 11.8314C206.175 11.2489 206.236 10.6664 206.277 10.1039C206.339 9.54149 206.359 9.03931 206.4 8.59739H210.069V17.7773H212.836V6.06638H203.961C203.9 7.05066 203.859 8.01486 203.777 8.95896C203.715 9.90307 203.633 10.807 203.531 11.6306C203.428 12.4742 203.326 13.1974 203.223 13.8402C203.141 14.3022 203.039 14.6638 202.916 14.945C202.793 15.2262 202.629 15.407 202.383 15.5074C202.137 15.6079 201.809 15.6079 201.379 15.5275V17.7773C202.281 17.9983 203.039 18.0183 203.613 17.8777ZM223.659 12.6952H217.858C217.961 13.4786 218.145 14.1616 218.534 14.6236C219.047 15.2664 219.805 15.5677 220.81 15.5677C221.445 15.5677 221.998 15.4271 222.449 15.1459C222.9 14.8646 223.269 14.4629 223.515 13.9406L226.262 14.7441C225.811 15.8087 225.093 16.6323 224.13 17.2149C223.167 17.7974 222.101 18.0987 220.953 18.0987C219.744 18.0987 218.657 17.8376 217.756 17.3354C216.833 16.8131 216.116 16.1101 215.603 15.2061C215.091 14.3022 214.825 13.2376 214.825 12.0524C214.825 10.7668 215.07 9.66202 215.583 8.71791C216.095 7.77381 216.792 7.05066 217.694 6.52839C218.596 6.00612 219.621 5.74499 220.81 5.74499C222.06 5.74499 223.105 6.02621 223.966 6.60874C224.847 7.17119 225.483 7.99477 225.913 9.01922C226.344 10.0437 226.487 11.2891 226.385 12.6952H225.052H223.659ZM218.534 9.07948C218.206 9.48123 218.002 10.0035 217.879 10.6463H223.577C223.474 9.92315 223.29 9.36071 222.982 8.95896C222.552 8.39651 221.855 8.11529 220.912 8.11529C219.846 8.11529 219.067 8.43669 218.534 9.07948ZM239.195 17.7974V6.06638H236.428V10.6463H231.181V6.06638H228.414V17.7974H231.181V13.1773H236.428V17.7773H239.195V17.7974ZM249.648 10.2646V17.7974H252.292V6.06638H250.12L244.483 13.3782V6.06638H241.839V17.7974H244.053L249.648 10.2646ZM264.857 6.06638V17.7974H262.09V13.9406H259.999C259.876 13.9406 259.753 13.9406 259.61 13.9406L257.191 17.7974H254.28L256.986 13.5389C256.433 13.3179 255.92 13.0367 255.51 12.6149C254.895 11.9921 254.608 11.1284 254.608 10.0437C254.608 8.97905 254.895 8.11529 255.469 7.4725C256.043 6.8297 256.801 6.40787 257.744 6.22708C258.134 6.14673 258.544 6.10656 258.954 6.08647C259.364 6.06638 259.712 6.06638 259.978 6.06638H264.857ZM262.09 8.17555H259.712C259.569 8.17555 259.405 8.17555 259.22 8.19564C259.036 8.21573 258.851 8.23582 258.667 8.29608C258.462 8.35634 258.257 8.45678 258.072 8.61748C257.888 8.77817 257.724 8.97905 257.601 9.20001C257.478 9.44106 257.416 9.70219 257.416 9.98341C257.416 10.4253 257.56 10.7869 257.806 11.0882C258.072 11.3895 258.38 11.5904 258.728 11.6708C258.892 11.731 259.077 11.7511 259.261 11.7712C259.446 11.7913 259.589 11.7913 259.712 11.7913H262.09V8.17555ZM271.702 17.7974H274.47V4.70044H281.93V17.7974H284.697V2.14935H271.702V17.7974ZM297.918 8.738C298.369 9.66202 298.615 10.7266 298.615 11.9319C298.615 13.097 298.389 14.1616 297.938 15.0856C297.487 16.0096 296.852 16.7528 296.032 17.2952C295.212 17.8376 294.249 18.1188 293.142 18.1188C291.974 18.1188 290.99 17.8576 290.19 17.2952C290.17 17.2751 290.149 17.2349 290.108 17.2149V22.9799H287.321V6.06638H289.76V6.91005C289.883 6.78953 289.985 6.64892 290.129 6.54848C290.908 6.00612 291.851 5.7249 292.978 5.7249C294.105 5.7249 295.11 5.98603 295.95 6.52839C296.811 7.07075 297.467 7.81398 297.918 8.738ZM295.683 11.9319C295.683 11.2288 295.581 10.6061 295.356 10.0437C295.13 9.48123 294.802 9.01922 294.351 8.67774C293.9 8.33625 293.306 8.17555 292.609 8.17555C291.953 8.17555 291.4 8.33625 290.99 8.63756C290.58 8.93887 290.272 9.40088 290.067 9.96333C289.883 10.5258 289.78 11.1887 289.78 11.9319C289.78 12.6751 289.883 13.338 290.067 13.9004C290.252 14.4629 290.58 14.9048 291.01 15.2262C291.441 15.5476 292.015 15.7083 292.711 15.7083C293.388 15.7083 293.962 15.5476 294.392 15.2061C294.823 14.8646 295.151 14.4227 295.376 13.8402C295.581 13.2577 295.683 12.6349 295.683 11.9319ZM311.158 8.71791C311.65 9.64193 311.917 10.7266 311.917 11.9319C311.917 13.1371 311.671 14.2218 311.158 15.1459C310.666 16.0699 309.949 16.8131 309.047 17.3354C308.145 17.8577 307.1 18.1188 305.911 18.1188C304.702 18.1188 303.657 17.8577 302.755 17.3354C301.853 16.8131 301.156 16.0699 300.664 15.1459C300.172 14.2218 299.926 13.1371 299.926 11.9319C299.926 10.7066 300.172 9.62184 300.685 8.69782C301.197 7.77381 301.894 7.05066 302.796 6.52839C303.698 6.00612 304.743 5.74499 305.911 5.74499C307.121 5.74499 308.166 6.00612 309.068 6.52839C309.97 7.05066 310.666 7.79389 311.158 8.71791ZM308.986 11.9319C308.986 10.8271 308.74 9.94324 308.207 9.28036C307.694 8.61748 306.936 8.29608 305.911 8.29608C305.214 8.29608 304.641 8.45678 304.19 8.75809C303.739 9.0594 303.411 9.50132 303.185 10.0437C302.96 10.586 302.857 11.2288 302.857 11.952C302.857 13.0568 303.124 13.9607 303.636 14.6035C304.149 15.2664 304.907 15.5878 305.911 15.5878C306.936 15.5878 307.715 15.2463 308.227 14.5633C308.74 13.8804 308.986 12.9965 308.986 11.9319ZM322.063 12.6952H316.262C316.365 13.4786 316.549 14.1616 316.938 14.6236C317.451 15.2664 318.209 15.5677 319.214 15.5677C319.849 15.5677 320.402 15.4271 320.853 15.1459C321.304 14.8646 321.673 14.4629 321.919 13.9406L324.666 14.7441C324.215 15.8087 323.497 16.6323 322.554 17.2149C321.591 17.7974 320.525 18.0987 319.378 18.0987C318.168 18.0987 317.082 17.8376 316.18 17.3354C315.258 16.8131 314.54 16.1101 314.028 15.2061C313.516 14.3022 313.249 13.2376 313.249 12.0524C313.249 10.7668 313.495 9.66202 314.007 8.71791C314.52 7.77381 315.217 7.05066 316.119 6.52839C317.02 6.00612 318.066 5.74499 319.234 5.74499C320.484 5.74499 321.53 6.02621 322.411 6.60874C323.272 7.17119 323.928 7.99477 324.358 9.01922C324.789 10.0437 324.932 11.2891 324.83 12.6952H323.497H322.063ZM316.959 9.07948C316.631 9.48123 316.426 10.0236 316.303 10.6463H322.001C321.899 9.92315 321.714 9.36071 321.407 8.95896C320.976 8.39651 320.279 8.11529 319.337 8.11529C318.271 8.11529 317.471 8.43669 316.959 9.07948ZM337.394 6.06638H333.951L329.667 11.7109V6.06638H326.859L326.838 17.7974H329.667V12.1528L334.115 17.7974H337.763L332.844 11.9319L337.394 6.06638ZM337.414 8.45678H341.391V17.7773H344.158V8.45678H348.134V6.06638H337.414V8.45678ZM359.387 9.17992C359.428 9.60176 359.448 10.0839 359.448 10.6061V17.7974H357.03V16.1904C356.579 16.7528 356.087 17.2349 355.533 17.5363C354.837 17.9179 353.935 18.1188 352.889 18.1188C352.008 18.1188 351.291 17.9581 350.696 17.6367C350.102 17.3153 349.651 16.8935 349.344 16.3511C349.036 15.8087 348.893 15.2262 348.893 14.5633C348.893 14.0009 348.975 13.4987 349.159 13.0568C349.344 12.6149 349.63 12.2131 350.04 11.8917C350.43 11.5502 350.942 11.2891 351.578 11.0681C352.049 10.9074 352.602 10.7668 353.238 10.6463C353.873 10.5258 354.57 10.4052 355.328 10.3048C355.759 10.2445 356.251 10.1642 356.722 10.1039C356.661 9.54149 356.538 9.07948 356.23 8.77817C355.861 8.4166 355.247 8.21573 354.365 8.21573C353.853 8.21573 353.361 8.33625 352.869 8.5773C352.377 8.81835 352.029 9.2201 351.824 9.80263L349.302 9.01922C349.61 8.03494 350.184 7.25154 351.004 6.64892C351.844 6.0463 352.971 5.74499 354.386 5.74499C355.451 5.74499 356.374 5.90568 357.194 6.24717C358.014 6.58865 358.608 7.13101 359.018 7.91442C359.223 8.31617 359.346 8.738 359.387 9.17992ZM356.681 12.9965C356.702 12.7354 356.702 12.5144 356.702 12.3135C356.23 12.3939 355.8 12.4542 355.451 12.5144C354.878 12.6149 354.406 12.6952 354.017 12.7756C353.627 12.8559 353.279 12.9363 352.971 13.0568C352.664 13.1773 352.418 13.2978 352.213 13.4384C352.008 13.579 351.844 13.7397 351.742 13.9205C351.639 14.1013 351.578 14.3022 351.578 14.5432C351.578 14.8245 351.639 15.0655 351.783 15.2865C351.926 15.5074 352.131 15.6681 352.418 15.7887C352.684 15.9092 353.033 15.9694 353.422 15.9694C354.017 15.9694 354.509 15.869 354.939 15.6681C355.349 15.4673 355.677 15.2262 355.923 14.9249C356.169 14.6437 356.333 14.3825 356.435 14.1214C356.579 13.8 356.661 13.4183 356.681 12.9965ZM368.385 14.021L364.142 6.06638H361.887V17.7974H364.531V11.5101L367.872 17.7974H368.918L372.259 11.5101V17.7974H374.903V6.06638H372.648L368.385 14.021ZM380.191 13.3782V6.06638H377.547V17.7974H379.76L385.376 10.2646V17.7974H388.021V6.06638H385.848L380.191 13.3782Z" fill="white"/>
<path d="M21.2139 3.45502V20.6699C21.2139 20.931 20.9885 21.152 20.722 21.152H3.15647C2.95151 21.152 2.76704 21.0314 2.70555 20.8507C2.62356 20.6699 2.66455 20.469 2.80803 20.3284L20.3736 3.11354C20.5171 2.97293 20.722 2.93275 20.9065 3.0131C21.091 3.07336 21.2139 3.25415 21.2139 3.45502ZM10.2893 8.31616C10.3713 8.41659 10.4942 8.45677 10.6377 8.45677C10.7402 8.45677 10.9042 8.39651 10.9862 8.31616L18.6314 0.823581C18.7749 0.682969 18.8158 0.482096 18.7339 0.30131C18.6519 0.120524 18.4674 0 18.2829 0H2.9925C2.78753 0 2.62356 0.120524 2.54157 0.30131C2.45959 0.482096 2.50058 0.682969 2.64406 0.823581L10.2893 8.31616ZM7.91167 11.1083C8.09614 10.9275 8.09614 10.6061 7.91167 10.4253L0.840359 3.51528C0.696883 3.37467 0.491918 3.3345 0.307449 3.39476C0.122979 3.47511 0 3.6559 0 3.85677V17.6969C0 17.8978 0.122979 18.0585 0.307449 18.1389C0.368938 18.159 0.430428 18.179 0.491918 18.179C0.614897 18.179 0.737876 18.1389 0.840359 18.0384L7.91167 11.1083Z" fill="#E9BE02"/>
</g>
<defs>
<clipPath id="clip0">
<rect width="388" height="23" fill="white"/>
</clipPath>
</defs>
</svg>
