<svg width="107" height="102" viewBox="0 0 107 102" fill="none" xmlns="http://www.w3.org/2000/svg">
<path d="M3.44167 63.5621H1.09586V50.2651H3.44167V59.4944L9.52024 50.2651H11.8661V63.5621H9.50312V54.3328L3.44167 63.5621ZM16.3693 59.6482H20.7528V63.5621H23.0643V53.5808H20.7528V57.4776H16.3693V53.5808H14.0578V63.5621H16.3693V59.6482ZM26.9854 63.1519C27.7217 63.6133 28.595 63.8355 29.6223 63.8355C30.7524 63.8355 31.7113 63.5621 32.4818 62.998C33.2524 62.4511 33.8003 61.6478 34.0914 60.6224L31.7456 60.1096C31.5743 60.6053 31.3346 60.9984 31.0093 61.2547C30.684 61.5282 30.2216 61.6478 29.6395 61.6478C28.8176 61.6478 28.2183 61.3573 27.7902 60.7933C27.3793 60.2293 27.1738 59.4773 27.1567 58.5543C27.1567 57.9562 27.2423 57.4263 27.4135 56.9649C27.5847 56.4863 27.8587 56.1274 28.2183 55.8539C28.5779 55.5805 29.0402 55.4608 29.6223 55.4608C30.1189 55.4608 30.5641 55.6147 30.9579 55.9052C31.3517 56.1958 31.6257 56.606 31.7798 57.1358L34.0914 56.5205C33.8688 55.5292 33.3551 54.743 32.5675 54.1619C31.7798 53.5808 30.8038 53.2903 29.6566 53.2903C28.6463 53.2903 27.7731 53.5125 27.0368 53.9739C26.3005 54.4183 25.7355 55.0507 25.3245 55.8368C24.9136 56.623 24.7252 57.5289 24.7252 58.5543C24.7252 59.5627 24.9136 60.4515 25.3074 61.2547C25.6841 62.058 26.2492 62.6904 26.9854 63.1519ZM38.0296 63.5621H40.3412V55.6318H43.663V53.5979H34.7078V55.6318H38.0296V63.5621V63.5621ZM51.5737 57.1529V63.5621H53.7825V53.5808H51.9504L47.2416 59.802V53.5808H45.0328V63.5621H46.8821L51.5737 57.1529ZM58.4913 63.5621H60.8028V55.6318H64.1247V53.6492L68.1314 63.4937L66.4876 67.9887H68.6451L74.2442 53.5808H71.9155L69.2444 60.6224L66.5047 53.5808H64.1247H64.0904H55.1523V55.6147H58.4742V63.5621H58.4913ZM77.7201 63.5621H80.0317V55.6318H83.3535V53.5979H74.3983V55.6318H77.7201V63.5621ZM2.80813 80.5677H5.2738L11.5578 67.2708H9.09217L5.80461 74.5175L2.61978 67.2708H0L4.58889 76.9444L2.80813 80.5677ZM14.8283 72.74H18.9549V80.5507H21.2493V70.5865H12.5167V80.5677H14.8283V72.74ZM25.7868 84.9944H23.4582V70.5865H25.4958V71.3043C25.5985 71.2018 25.6841 71.0822 25.804 70.9967C26.4546 70.5352 27.2423 70.296 28.184 70.296C29.1429 70.296 29.9648 70.5182 30.6668 70.9796C31.3689 71.4411 31.9168 72.0564 32.2935 72.8425C32.6702 73.6287 32.8757 74.5346 32.8757 75.56C32.8757 76.5513 32.6873 77.4572 32.3106 78.2434C31.9339 79.0295 31.4031 79.6619 30.7182 80.1234C30.0333 80.5848 29.2285 80.8241 28.3039 80.8241C27.3279 80.8241 26.506 80.6019 25.8382 80.1234C25.8211 80.1063 25.804 80.0721 25.7697 80.055V84.9944H25.7868ZM25.5129 75.5771C25.5129 76.2095 25.5985 76.7735 25.7526 77.2521C25.9067 77.7306 26.1807 78.1066 26.5402 78.3801C26.8998 78.6535 27.3793 78.7903 27.9614 78.7903C28.5265 78.7903 29.0059 78.6535 29.3655 78.363C29.7251 78.0724 29.999 77.6964 30.1874 77.2008C30.3586 76.7222 30.4614 76.1753 30.4614 75.5771C30.4614 74.9789 30.3757 74.4491 30.1874 73.9706C29.999 73.492 29.7251 73.0989 29.3484 72.8084C28.9717 72.5178 28.4751 72.3811 27.8929 72.3811C27.345 72.3811 26.8827 72.5178 26.5402 72.7742C26.1978 73.0476 25.941 73.4237 25.7697 73.9022C25.5814 74.3808 25.5129 74.9448 25.5129 75.5771ZM37.3447 80.8412C36.6084 80.8412 36.0091 80.7045 35.5126 80.431C35.016 80.1576 34.6393 79.7986 34.3825 79.3372C34.1256 78.8757 34.0058 78.3801 34.0058 77.8161C34.0058 77.3375 34.0743 76.9102 34.2284 76.5342C34.3825 76.1582 34.6222 75.8164 34.9475 75.543C35.2728 75.2524 35.7009 75.0302 36.2317 74.8422C36.6255 74.7055 37.0879 74.5859 37.6187 74.4833C38.1495 74.3808 38.7316 74.2782 39.3823 74.1928C39.7419 74.1415 40.1528 74.0731 40.5466 74.0218C40.4953 73.5433 40.3925 73.1502 40.1357 72.8938C39.8275 72.5862 39.3138 72.4153 38.5775 72.4153C38.1495 72.4153 37.7385 72.5178 37.3276 72.7229C36.9166 72.928 36.6255 73.2698 36.4543 73.7655L34.3482 73.0989C34.6051 72.2615 35.0674 71.5949 35.7694 71.0822C36.4714 70.5694 37.4132 70.3131 38.5947 70.3131C39.485 70.3131 40.2556 70.4498 40.9405 70.7403C41.6254 71.0309 42.1219 71.4924 42.4644 72.1589C42.6527 72.5178 42.7555 72.8767 42.7897 73.2356C42.824 73.5946 42.8411 74.0048 42.8411 74.4491V80.5677H40.8206V79.2175C40.4439 79.6961 40.033 80.1063 39.5707 80.3627C38.9714 80.6703 38.2351 80.8412 37.3447 80.8412ZM36.9509 78.8586C37.1735 78.9612 37.4646 79.0125 37.7899 79.0125C38.2864 79.0125 38.6974 78.927 39.0398 78.7561C39.3823 78.5852 39.6563 78.3801 39.8617 78.1237C40.0672 77.8844 40.2042 77.6623 40.2898 77.4401C40.4097 77.1666 40.4782 76.8419 40.4953 76.483C40.5124 76.2608 40.5124 76.0728 40.5124 75.9019C40.1186 75.9702 39.759 76.0215 39.4679 76.0728C38.9885 76.1582 38.5947 76.2266 38.2693 76.295C37.944 76.3633 37.6529 76.4317 37.3961 76.5342C37.1392 76.6368 36.9337 76.7393 36.7625 76.859C36.5913 76.9786 36.4543 77.1153 36.3687 77.2692C36.2831 77.423 36.2317 77.5939 36.2317 77.799C36.2317 78.0383 36.2831 78.2434 36.4029 78.4314C36.557 78.6023 36.7283 78.7561 36.9509 78.8586ZM49.7929 80.5677H44.8616V70.5865H49.4334C49.7758 70.5865 50.084 70.6036 50.3751 70.6378C50.6491 70.672 50.8888 70.7232 51.0943 70.7916C51.5737 70.9283 51.9846 71.2018 52.3613 71.5949C52.738 72.0051 52.9093 72.5691 52.9093 73.304C52.9093 73.7313 52.8408 74.0902 52.7038 74.3637C52.5668 74.6371 52.3785 74.8593 52.1559 75.0473C52.0531 75.1328 51.9504 75.2011 51.8305 75.2524C51.7278 75.3208 51.6079 75.355 51.5052 75.3891C51.7449 75.4233 51.9846 75.4917 52.2072 75.5942C52.5326 75.748 52.8237 76.0044 53.0634 76.3121C53.3031 76.6368 53.4229 77.0982 53.4229 77.6964C53.4229 78.363 53.2517 78.927 52.9264 79.3885C52.6011 79.8499 52.1216 80.1747 51.4881 80.3456C51.2655 80.4139 51.0086 80.4652 50.7004 80.4823C50.4093 80.5507 50.1011 80.5677 49.7929 80.5677ZM47.1903 74.6713H48.9539C49.1423 74.6713 49.3306 74.6542 49.5018 74.6371C49.6902 74.62 49.8272 74.5688 49.9642 74.5175C50.1525 74.432 50.2895 74.3124 50.3922 74.1244C50.4778 73.9364 50.5292 73.7484 50.5292 73.5262C50.5292 73.2869 50.4778 73.0647 50.3751 72.8767C50.2724 72.6887 50.1011 72.552 49.8785 72.4836C49.7244 72.4324 49.5361 72.3982 49.3306 72.3982C49.108 72.3982 48.971 72.3811 48.9197 72.3811H47.1903V74.6713ZM49.6388 78.8074C49.7758 78.8074 49.9128 78.7903 50.0498 78.7732C50.2039 78.739 50.3237 78.7048 50.4436 78.6706C50.6662 78.6023 50.8203 78.4655 50.9059 78.2604C50.9915 78.0554 51.0429 77.8503 51.0429 77.6452C51.0429 77.3546 50.9744 77.1324 50.8374 76.9444C50.7004 76.7735 50.5292 76.6539 50.3409 76.5855C50.221 76.5342 50.084 76.5001 49.947 76.5001C49.81 76.483 49.6902 76.483 49.5875 76.483H47.1903V78.8074H49.6388ZM55.8544 80.6361C56.3338 80.5165 56.7105 80.243 56.9845 79.8157C57.2584 79.3885 57.4639 78.8074 57.6009 78.0553C57.6694 77.7477 57.7208 77.3546 57.7892 76.9102C57.8406 76.4659 57.9091 75.9873 57.9434 75.4917C57.9947 74.996 58.0461 74.5004 58.0803 74.0218C58.1146 73.5433 58.1488 73.116 58.1831 72.74H61.248V80.5507H63.5596V70.5865H56.1455C56.1112 71.424 56.0599 72.2444 55.9914 73.0476C55.94 73.8509 55.8715 74.62 55.7859 75.3208C55.7003 76.0386 55.6147 76.6539 55.529 77.2008C55.4606 77.5939 55.3749 77.9015 55.2722 78.1408C55.1695 78.3801 55.0325 78.5339 54.827 78.6194C54.6215 78.7048 54.3476 78.7048 53.988 78.6364V80.5507C54.7414 80.7387 55.3749 80.7558 55.8544 80.6361ZM72.5833 76.2266H67.7376C67.8232 76.8932 67.9773 77.4743 68.3026 77.8674C68.7307 78.4143 69.3642 78.6706 70.2032 78.6706C70.734 78.6706 71.1963 78.551 71.5731 78.3117C71.9498 78.0724 72.258 77.7306 72.4634 77.2863L74.7579 77.9699C74.3812 78.8757 73.7819 79.5765 72.9771 80.0721C72.1723 80.5677 71.282 80.8241 70.3231 80.8241C69.3128 80.8241 68.4053 80.6019 67.6519 80.1747C66.8814 79.7303 66.2821 79.1321 65.8541 78.363C65.426 77.5939 65.2034 76.6881 65.2034 75.6797C65.2034 74.5858 65.4089 73.6458 65.8369 72.8425C66.265 72.0393 66.8472 71.424 67.6006 70.9796C68.354 70.5352 69.2101 70.3131 70.2032 70.3131C71.2477 70.3131 72.121 70.5523 72.8401 71.048C73.5764 71.5265 74.1072 72.2273 74.4668 73.0989C74.8264 73.9877 74.9462 75.0302 74.8606 76.2266H73.7476H72.5833V76.2266ZM68.3197 73.1502C68.0458 73.492 67.8745 73.9364 67.7718 74.4833H72.5319C72.4463 73.868 72.2922 73.3895 72.0354 73.0476C71.6758 72.5691 71.0936 72.3298 70.306 72.3298C69.4156 72.3298 68.7478 72.6033 68.3197 73.1502ZM85.5795 80.5677V70.5865H83.2679V74.4833H78.8845V70.5865H76.5729V80.5677H78.8845V76.6539H83.2679V80.5677H85.5795ZM94.3121 74.1586V80.5677H96.5209V70.5865H94.7059L89.9971 76.8077V70.5865H87.7883V80.5677H89.6375L94.3121 74.1586ZM107 70.5865V80.5677H104.688V77.2863H102.942C102.839 77.2863 102.736 77.2863 102.617 77.2863L100.596 80.5677H98.1647L100.425 76.9444C99.9626 76.7564 99.5345 76.5171 99.192 76.1582C98.6783 75.6284 98.4386 74.8935 98.4386 73.9706C98.4386 73.0647 98.6783 72.3298 99.1578 71.7829C99.6372 71.236 100.271 70.8771 101.058 70.7232C101.384 70.6549 101.726 70.6207 102.069 70.6036C102.411 70.5865 102.702 70.5865 102.925 70.5865H107V70.5865ZM104.688 72.3811H102.702C102.582 72.3811 102.445 72.3811 102.291 72.3982C102.137 72.4153 101.983 72.4324 101.829 72.4836C101.658 72.5349 101.486 72.6204 101.332 72.7571C101.178 72.8938 101.041 73.0647 100.939 73.2527C100.836 73.4578 100.784 73.68 100.784 73.9193C100.784 74.2953 100.904 74.6029 101.11 74.8593C101.332 75.1157 101.589 75.2866 101.88 75.3549C102.017 75.4062 102.171 75.4233 102.325 75.4404C102.48 75.4575 102.599 75.4575 102.702 75.4575H104.688V72.3811V72.3811ZM1.09586 97.5734H3.40743V86.43H9.6401V97.5734H11.9517V84.2594H1.09586V97.5734ZM22.9958 89.8653C23.3725 90.6515 23.578 91.5574 23.578 92.5828C23.578 93.5741 23.3897 94.48 23.013 95.2661C22.6363 96.0523 22.1055 96.6847 21.4205 97.1462C20.7356 97.6076 19.9309 97.8469 19.0062 97.8469C18.0302 97.8469 17.2084 97.6247 16.5406 97.1462C16.5234 97.1291 16.5063 97.0949 16.4721 97.0778V101.983H14.1434V87.5751H16.181V88.293C16.2837 88.1904 16.3693 88.0708 16.4892 87.9853C17.1399 87.5238 17.9275 87.2846 18.8693 87.2846C19.811 87.2846 20.65 87.5068 21.3521 87.9682C22.0712 88.4468 22.6191 89.0791 22.9958 89.8653ZM21.1295 92.5828C21.1295 91.9846 21.0438 91.4548 20.8555 90.9763C20.6671 90.4977 20.3932 90.1046 20.0165 89.8141C19.6398 89.5235 19.1432 89.3868 18.561 89.3868C18.0131 89.3868 17.5508 89.5235 17.2084 89.7799C16.8659 90.0362 16.5919 90.4123 16.4378 90.9079C16.2837 91.3864 16.1981 91.9505 16.1981 92.5828C16.1981 93.2152 16.2837 93.7792 16.4378 94.2578C16.5919 94.7363 16.8659 95.1123 17.2255 95.3858C17.5851 95.6592 18.0645 95.796 18.6467 95.796C19.2117 95.796 19.6912 95.6592 20.0507 95.3687C20.4103 95.0781 20.6843 94.7021 20.8555 94.2065C21.0438 93.7108 21.1295 93.181 21.1295 92.5828ZM34.0571 89.8482C34.4681 90.6344 34.6907 91.5574 34.6907 92.5828C34.6907 93.6083 34.4852 94.5312 34.0571 95.3174C33.6462 96.1036 33.0469 96.736 32.2935 97.1804C31.5401 97.6247 30.6668 97.8469 29.6737 97.8469C28.6635 97.8469 27.7902 97.6247 27.0368 97.1804C26.2834 96.736 25.7012 96.1036 25.2903 95.3174C24.8793 94.5312 24.6739 93.6083 24.6739 92.5828C24.6739 91.5403 24.8793 90.6174 25.3074 89.8312C25.7355 89.045 26.3177 88.4297 27.0711 87.9853C27.8245 87.5409 28.6977 87.3188 29.6737 87.3188C30.6839 87.3188 31.5572 87.5409 32.3106 87.9853C33.064 88.4297 33.6462 89.0621 34.0571 89.8482ZM32.2421 92.5828C32.2421 91.6428 32.0366 90.8908 31.5915 90.3268C31.1634 89.7628 30.5298 89.4893 29.6737 89.4893C29.0915 89.4893 28.6121 89.6261 28.2354 89.8824C27.8587 90.1388 27.5847 90.5148 27.3964 90.9763C27.208 91.4377 27.1224 91.9846 27.1224 92.5999C27.1224 93.5399 27.345 94.309 27.7731 94.856C28.2012 95.42 28.8347 95.6934 29.6737 95.6934C30.5298 95.6934 31.1805 95.4029 31.6086 94.8218C32.0366 94.2407 32.2421 93.4887 32.2421 92.5828ZM43.1664 93.2323H38.3207C38.4063 93.8988 38.5604 94.4799 38.8857 94.873C39.3138 95.42 39.9474 95.6763 40.7864 95.6763C41.3172 95.6763 41.7795 95.5567 42.1562 95.3174C42.55 95.0781 42.8411 94.7363 43.0466 94.2919L45.341 94.9756C44.9643 95.8814 44.365 96.5822 43.5774 97.0778C42.7726 97.5734 41.8822 97.8298 40.9233 97.8298C39.9131 97.8298 39.0056 97.6076 38.2522 97.1804C37.4817 96.736 36.8824 96.1378 36.4543 95.3687C36.0262 94.5996 35.8036 93.6938 35.8036 92.6854C35.8036 91.5915 36.0091 90.6515 36.4372 89.8482C36.8653 89.045 37.4474 88.4297 38.2008 87.9853C38.9542 87.5409 39.8275 87.3188 40.8035 87.3188C41.848 87.3188 42.7212 87.558 43.4575 88.0537C44.1938 88.5322 44.7246 89.233 45.0842 90.1046C45.4438 90.9934 45.5636 92.0359 45.478 93.2323H44.365H43.1664V93.2323ZM38.8857 90.1559C38.6118 90.4977 38.4405 90.9592 38.3378 91.489H43.0979C43.0123 90.8737 42.8582 90.3952 42.6014 90.0533C42.2418 89.5748 41.6596 89.3355 40.872 89.3355C39.9987 89.3184 39.3309 89.609 38.8857 90.1559ZM55.9571 87.5922H53.0805L49.5018 92.3948V87.5922H47.156L47.1389 97.5734H49.5018V92.7708L53.2175 97.5734H56.2653L52.1559 92.5828L55.9571 87.5922ZM55.9914 89.6261H59.3132V97.5564H61.6247V89.6261H64.9466V87.5922H55.9914V89.6261ZM74.3469 90.2413C74.3812 90.6003 74.3983 91.0104 74.3983 91.4548V97.5734H72.3778V96.2232C72.0011 96.7018 71.5902 97.112 71.1279 97.3684C70.5457 97.6931 69.7923 97.864 68.919 97.864C68.1999 97.864 67.5835 97.7273 67.0869 97.4538C66.5903 97.1804 66.2136 96.8214 65.9568 96.36C65.7 95.8985 65.5801 95.4029 65.5801 94.8389C65.5801 94.3603 65.6486 93.933 65.8027 93.557C65.9568 93.181 66.1965 92.8392 66.5218 92.5657C66.8472 92.2752 67.2752 92.053 67.806 91.865C68.1999 91.7283 68.6622 91.6086 69.193 91.5061C69.7238 91.4035 70.306 91.301 70.9395 91.2155C71.2991 91.1643 71.71 91.0959 72.1039 91.0446C72.0525 90.5661 71.9497 90.173 71.6929 89.9166C71.3847 89.609 70.871 89.4381 70.1347 89.4381C69.7067 89.4381 69.2957 89.5406 68.8848 89.7457C68.4738 89.9508 68.1828 90.2926 68.0115 90.7883L65.9054 90.1217C66.1623 89.2842 66.6246 88.6177 67.3266 88.1049C68.0286 87.5922 68.9704 87.3358 70.1519 87.3358C71.0422 87.3358 71.8128 87.4726 72.4977 87.7631C73.1826 88.0537 73.6791 88.5151 74.0216 89.1817C74.1928 89.5064 74.3127 89.8653 74.3469 90.2413ZM72.0867 93.4887C72.1039 93.2665 72.1039 93.0785 72.1039 92.9076C71.71 92.9759 71.3505 93.0272 71.0594 93.0785C70.5799 93.1639 70.1861 93.2323 69.8608 93.3007C69.5354 93.369 69.2444 93.4374 68.9875 93.5399C68.7307 93.6425 68.5252 93.745 68.354 93.8647C68.1827 93.9843 68.0458 94.121 67.9602 94.2749C67.8745 94.4287 67.8232 94.5996 67.8232 94.8047C67.8232 95.044 67.8745 95.2491 67.9944 95.4371C68.1143 95.6251 68.2855 95.7618 68.5252 95.8643C68.7478 95.9669 69.0389 96.0182 69.3642 96.0182C69.8608 96.0182 70.2717 95.9327 70.6313 95.7618C70.9909 95.5909 71.2477 95.3687 71.4532 95.1294C71.6587 94.8901 71.7956 94.6679 71.8813 94.4458C72.0011 94.1723 72.0696 93.8476 72.0867 93.4887ZM81.8638 94.3603L78.3194 87.5922H76.4359V97.5734H78.6447V92.2239L81.4358 97.5734H82.309L85.1 92.2239V97.5734H87.3089V87.5922H85.4253L81.8638 94.3603ZM91.7265 93.8134V87.5922H89.5177V97.5734H91.3669L96.0586 91.1643V97.5734H98.2674V87.5922H96.4524L91.7265 93.8134Z" fill="white"/>
<path d="M40.7186 6.75101V40.3693C40.7186 40.882 40.2905 41.3093 39.7768 41.3093H6.09639C5.71969 41.3093 5.36012 41.0871 5.22314 40.7282C5.06903 40.3693 5.15464 39.9762 5.42861 39.7027L39.109 6.06736C39.383 5.7939 39.7768 5.70845 40.1364 5.86227C40.496 6.01609 40.7186 6.35791 40.7186 6.75101ZM19.7603 16.2537C19.9316 16.4246 20.1713 16.5271 20.4281 16.5271C20.6336 16.5271 20.9589 16.3904 21.0959 16.2537L35.753 1.62366C36.0269 1.3502 36.1126 0.940013 35.9585 0.59819C35.8215 0.222185 35.479 0 35.0852 0H5.75394C5.37724 0 5.03478 0.222185 4.88068 0.581099C4.72658 0.940013 4.81219 1.33311 5.08615 1.60657L19.7603 16.2537ZM15.1886 21.7058C15.5481 21.3298 15.5481 20.7487 15.1886 20.3727L1.64448 6.85355C1.37052 6.58009 0.976696 6.51173 0.617118 6.64846C0.257541 6.80228 0.0178223 7.1441 0.0178223 7.52011V34.5583C0.0178223 34.9343 0.240418 35.2761 0.599995 35.43C0.719855 35.4812 0.839714 35.4983 0.959573 35.4983C1.19929 35.4983 1.43901 35.3958 1.62736 35.2249L15.1886 21.7058Z" fill="#E9BE02"/>
</svg>
