<svg width="177" height="59" viewBox="0 0 177 59" fill="none" xmlns="http://www.w3.org/2000/svg">
<path d="M15.1258 21.6322C15.4852 21.2639 15.4803 20.6702 15.121 20.3084L1.61145 6.83003C1.34152 6.56396 0.939877 6.48285 0.583764 6.62886C0.229278 6.77324 0 7.11556 0 7.4968V34.4486C0 34.8299 0.226026 35.1706 0.580512 35.3166C0.69759 35.3685 0.821173 35.3912 0.944755 35.3912C1.18542 35.3912 1.42608 35.2955 1.61145 35.117L15.121 21.6387C15.1226 21.6354 15.1242 21.6322 15.1258 21.6322ZM19.6724 16.1941C19.8496 16.371 20.0838 16.4683 20.3326 16.4699H20.3358C20.5374 16.4699 20.8659 16.3353 21.0074 16.1958L35.6291 1.60611C35.8991 1.3368 35.9804 0.932842 35.8324 0.580796C35.6861 0.227127 35.3446 0 34.9624 0H5.71731C5.33518 0 4.99371 0.225505 4.84736 0.577551C4.69938 0.927975 4.77744 1.33031 5.04899 1.60611L19.6724 16.1941ZM40.5822 6.71971V40.229C40.5822 40.7465 40.1594 41.17 39.6407 41.17H6.05391C5.67178 41.17 5.32705 40.9412 5.18071 40.5892C5.03598 40.2355 5.11566 39.8332 5.38722 39.5606L38.974 6.05293C39.2423 5.78849 39.6439 5.70413 39.9984 5.85014C40.3529 5.9929 40.5822 6.33684 40.5822 6.71971Z" fill="#E8BE02"/>
<path d="M62.8823 15.0893V4.45331L55.8674 15.0893H53.3047V0H55.8674V10.636L62.8823 0H65.445V15.0893" fill="white"/>
<path d="M68.3655 15.0894V3.77197H70.8973V8.23664H75.9902V3.77197H78.522V15.0894H75.9902V10.6036H70.8973V15.0894" fill="white"/>
<path d="M84.3075 15.0894V6.01404H80.5171V3.77197H90.6313V6.01404H86.8393V15.0894" fill="white"/>
<path d="M97.3438 15.4041C96.1731 15.4041 95.1763 15.1446 94.3502 14.6238C93.5225 14.103 92.8916 13.3925 92.4542 12.4904C92.0168 11.59 91.794 10.5696 91.7859 9.43071C91.794 8.27074 92.0233 7.24218 92.4753 6.34503C92.9258 5.44788 93.5681 4.74216 94.4023 4.22788C95.2348 3.71523 96.2251 3.45728 97.3747 3.45728C98.6626 3.45728 99.7537 3.78174 100.646 4.42743C101.539 5.07312 102.121 5.95567 102.394 7.07346L99.874 7.75484C99.6789 7.14646 99.352 6.67274 98.8967 6.3353C98.4414 5.99623 97.9243 5.82588 97.3438 5.82588C96.6853 5.82588 96.1422 5.98163 95.7145 6.29312C95.2885 6.60298 94.973 7.03128 94.7697 7.57638C94.5665 8.12149 94.4657 8.7396 94.4657 9.43071C94.4657 10.5063 94.7063 11.3759 95.1909 12.0394C95.6722 12.7046 96.3909 13.0355 97.3438 13.0355C98.0154 13.0355 98.5455 12.8814 98.9341 12.5748C99.3228 12.2666 99.6155 11.8237 99.8106 11.2429L102.394 11.8204C102.045 12.9723 101.432 13.8581 100.557 14.4762C99.6821 15.0943 98.6105 15.4041 97.3438 15.4041Z" fill="white"/>
<path d="M107.279 15.0894V6.01404H103.487V3.77197H113.601V6.01404H109.809V15.0894" fill="white"/>
<path d="M125.428 3.77197V15.0894H123.002V7.70127L117.603 15.0894H115.575V3.77197H118.002V10.9703L123.421 3.77197" fill="white"/>
<path d="M141.474 20.1186L143.66 14.1354L143.702 15.8957L138.754 3.77197H141.39L144.899 12.7419H144.227L147.64 3.77197H150.17L143.848 20.1186" fill="white"/>
<path d="M131.215 15.0894V6.01404H127.423V3.77197H137.537V6.01404H133.745V15.0894" fill="white"/>
<path d="M155.18 15.0894V6.01404H151.388V3.77197H161.503V6.01404H157.711V15.0894" fill="white"/>
<path d="M56.0771 34.5298L58.0723 30.4642L52.8525 19.4404H55.7096L59.3959 27.8019L63.1977 19.4404H65.897L58.7764 34.5298" fill="white"/>
<path d="M66.9084 34.5298V23.2124H76.7609V34.5298H74.2291V25.581H69.4403V34.5298" fill="white"/>
<path d="M84.7628 32.5813C85.4214 32.5813 85.9645 32.4174 86.3905 32.0881C86.8182 31.7604 87.1353 31.3142 87.3418 30.7529C87.5483 30.1899 87.6524 29.5637 87.6524 28.871C87.6524 28.1864 87.5467 27.5634 87.3369 27.0004C87.1271 26.4391 86.8019 25.9913 86.3596 25.6604C85.919 25.3278 85.358 25.1623 84.6799 25.1623C84.0343 25.1623 83.5107 25.3164 83.1042 25.6279C82.6977 25.9394 82.3985 26.3726 82.2066 26.9274C82.0131 27.4823 81.9172 28.1312 81.9172 28.871C81.9172 29.6043 82.0131 30.2516 82.2066 30.8097C82.3985 31.3694 82.7026 31.8042 83.1188 32.114C83.5368 32.4255 84.0847 32.5813 84.7628 32.5813ZM85.1515 34.8444C84.0457 34.8444 83.1188 34.5832 82.3692 34.0576C81.6196 33.5336 81.0554 32.8197 80.6781 31.9161C80.2992 31.0108 80.1106 29.9969 80.1106 28.871C80.1106 27.7337 80.2992 26.7133 80.6781 25.8113C81.0554 24.9109 81.6098 24.2003 82.3432 23.6795C83.0733 23.1587 83.979 22.8992 85.0571 22.8992C86.1287 22.8992 87.0588 23.1587 87.8459 23.6795C88.6345 24.2003 89.2443 24.9092 89.6785 25.8064C90.1126 26.7035 90.3305 27.7256 90.3305 28.871C90.3305 30.0034 90.1159 31.019 89.6898 31.921C89.2622 32.8214 88.6589 33.5336 87.8833 34.0576C87.1044 34.5832 86.1954 34.8444 85.1515 34.8444ZM79.6797 39.5589V23.2123H81.9172V31.1552H82.2326V39.5589" fill="white"/>
<path d="M96.3178 32.8327C96.8901 32.8327 97.3812 32.7305 97.7877 32.5293C98.1926 32.3265 98.5178 32.0783 98.7585 31.7847C99.0008 31.491 99.1634 31.2152 99.248 30.9557C99.3797 30.6361 99.4561 30.2662 99.474 29.8509C99.4919 29.4355 99.5 29.0981 99.5 28.8402L100.277 29.0705C99.513 29.189 98.8577 29.2944 98.313 29.3853C97.7666 29.4761 97.2967 29.5621 96.9048 29.6416C96.5129 29.7227 96.1665 29.8119 95.8657 29.9093C95.5714 30.0147 95.3226 30.1364 95.1193 30.2759C94.9177 30.4154 94.7616 30.5761 94.6526 30.7578C94.5437 30.9395 94.49 31.1536 94.49 31.397C94.49 31.676 94.5583 31.9226 94.6998 32.1351C94.8396 32.3493 95.0445 32.518 95.3145 32.6445C95.5828 32.7694 95.9177 32.8327 96.3178 32.8327ZM95.812 34.8444C94.9941 34.8444 94.3014 34.6887 93.7339 34.3788C93.1664 34.0673 92.7371 33.6536 92.446 33.1361C92.155 32.6186 92.0103 32.0491 92.0103 31.4278C92.0103 30.8827 92.1029 30.3927 92.2834 29.9563C92.4672 29.5199 92.7452 29.1419 93.1241 28.8239C93.5014 28.506 93.9925 28.2464 94.5941 28.0436C95.051 27.896 95.5828 27.7645 96.1958 27.6461C96.8088 27.5261 97.4739 27.4174 98.191 27.3152C98.9097 27.2146 99.661 27.1043 100.445 26.9858L99.5407 27.4985C99.5488 26.7165 99.3732 26.1406 99.0154 25.7691C98.6593 25.3992 98.0577 25.2142 97.2105 25.2142C96.6983 25.2142 96.2039 25.3327 95.7291 25.5712C95.2527 25.808 94.9209 26.2168 94.7307 26.796L92.42 26.0741C92.6997 25.1169 93.2347 24.3479 94.0217 23.7687C94.8104 23.1879 95.8722 22.8992 97.2105 22.8992C98.217 22.8992 99.1049 23.063 99.8724 23.3907C100.638 23.7201 101.209 24.2571 101.58 25.005C101.781 25.4024 101.905 25.8096 101.947 26.225C101.99 26.6419 102.009 27.0929 102.009 27.5828V34.5297H99.7943V32.0783L100.16 32.4758C99.6496 33.2935 99.0528 33.8921 98.3699 34.2733C97.6885 34.6546 96.8349 34.8444 95.812 34.8444Z" fill="white"/>
<path d="M107.282 32.5814H110.118C110.265 32.5814 110.426 32.5668 110.601 32.5392C110.775 32.5116 110.933 32.4727 111.073 32.424C111.327 32.3332 111.509 32.1726 111.624 31.9422C111.741 31.7118 111.798 31.4701 111.798 31.2186C111.798 30.8763 111.712 30.6021 111.541 30.3961C111.369 30.1901 111.164 30.0522 110.926 29.9824C110.787 29.9272 110.634 29.8932 110.47 29.8818C110.305 29.8721 110.17 29.8672 110.065 29.8672H107.282V32.5814ZM107.282 27.8863H109.383C109.6 27.8863 109.811 27.875 110.018 27.8507C110.224 27.8247 110.398 27.7825 110.538 27.7192C110.769 27.6284 110.938 27.4743 111.047 27.2569C111.156 27.0411 111.209 26.801 111.209 26.5349C111.209 26.2559 111.149 26.0028 111.027 25.7757C110.904 25.5486 110.709 25.3961 110.444 25.3182C110.268 25.2501 110.057 25.2111 109.808 25.2046C109.559 25.1965 109.4 25.1933 109.33 25.1933H107.282V27.8863ZM104.72 34.5298V23.2124H109.876C110.247 23.2124 110.595 23.2335 110.915 23.2757C111.237 23.3179 111.515 23.3698 111.746 23.433C112.292 23.5937 112.775 23.9068 113.195 24.3707C113.616 24.8347 113.826 25.4756 113.826 26.2932C113.826 26.775 113.748 27.1725 113.595 27.4824C113.44 27.7939 113.237 28.0534 112.985 28.2643C112.866 28.3617 112.744 28.4461 112.618 28.5158C112.491 28.5856 112.366 28.6407 112.24 28.6829C112.512 28.7251 112.772 28.8046 113.016 28.9246C113.401 29.1128 113.725 29.3919 113.988 29.7618C114.25 30.1333 114.382 30.6524 114.382 31.3241C114.382 32.0849 114.198 32.7258 113.831 33.2465C113.463 33.7673 112.925 34.1275 112.218 34.3303C111.959 34.4 111.661 34.4519 111.327 34.4828C110.99 34.5136 110.647 34.5298 110.297 34.5298" fill="white"/>
<path d="M115.918 34.5298V32.4143C116.331 32.4905 116.65 32.4808 116.875 32.3867C117.097 32.2926 117.266 32.1125 117.379 31.8481C117.489 31.582 117.588 31.2284 117.673 30.7887C117.784 30.1673 117.884 29.4519 117.972 28.6407C118.058 27.8312 118.136 26.9649 118.203 26.0418C118.27 25.1203 118.33 24.1777 118.387 23.2124H126.737V34.5298H124.216V25.581H120.613C120.577 26.0353 120.537 26.5431 120.488 27.106C120.437 27.669 120.385 28.2351 120.33 28.8078C120.273 29.3821 120.211 29.9256 120.146 30.4383C120.08 30.9509 120.011 31.3906 119.941 31.754C119.779 32.57 119.551 33.2173 119.254 33.6927C118.954 34.1664 118.541 34.473 118.008 34.6093C117.476 34.7439 116.779 34.718 115.918 34.5298Z" fill="white"/>
<path d="M130.441 27.6656H138.245V29.5734H130.441V27.6656ZM134.347 34.8444C133.199 34.8444 132.191 34.5962 131.323 34.0998C130.454 33.6049 129.778 32.9155 129.292 32.0361C128.804 31.1552 128.562 30.1429 128.562 28.9975C128.562 27.7613 128.799 26.6873 129.275 25.7756C129.75 24.8638 130.412 24.1565 131.259 23.6536C132.108 23.1506 133.087 22.8992 134.201 22.8992C135.376 22.8992 136.376 23.1733 137.199 23.7217C138.022 24.27 138.633 25.0439 139.032 26.0416C139.432 27.041 139.582 28.2188 139.484 29.5734H136.973V28.652C136.967 27.4222 136.749 26.5235 136.323 25.9589C135.895 25.3927 135.224 25.1088 134.306 25.1088C133.269 25.1088 132.5 25.4284 131.996 26.0676C131.492 26.7068 131.24 27.6412 131.24 28.871C131.24 30.0163 131.492 30.9038 131.996 31.5332C132.5 32.1611 133.235 32.4758 134.201 32.4758C134.824 32.4758 135.362 32.3379 135.812 32.0621C136.264 31.7863 136.612 31.3872 136.858 30.8616L139.357 31.616C138.925 32.6364 138.253 33.4297 137.347 33.9959C136.44 34.5621 135.44 34.8444 134.347 34.8444Z" fill="white"/>
<path d="M141.816 34.5298V23.2124H144.347V27.6771H149.44V23.2124H151.971V34.5298H149.44V30.0457H144.347V34.5298" fill="white"/>
<path d="M164.744 23.2124V34.5298H162.317V27.1417L156.919 34.5298H154.891V23.2124H157.317V30.4123L162.737 23.2124" fill="white"/>
<path d="M172.18 28.777H174.469V25.1933H172.18C172.046 25.1933 171.885 25.1998 171.695 25.2144C171.506 25.229 171.318 25.2598 171.129 25.3085C170.926 25.3717 170.732 25.4804 170.552 25.6329C170.368 25.787 170.219 25.9801 170.1 26.2105C169.981 26.4408 169.921 26.702 169.921 26.9957C169.921 27.4353 170.049 27.8004 170.305 28.0908C170.56 28.3812 170.859 28.5742 171.202 28.6716C171.37 28.7137 171.544 28.7429 171.723 28.7559C171.9 28.7705 172.053 28.777 172.18 28.777ZM174.469 34.5298V30.7579H172.441C172.183 30.7579 171.859 30.7514 171.471 30.7368C171.082 30.7222 170.719 30.6881 170.383 30.6313C169.508 30.4707 168.783 30.0879 168.209 29.4843C167.635 28.8808 167.349 28.0583 167.349 27.0168C167.349 25.9963 167.62 25.1754 168.166 24.5541C168.713 23.9327 169.423 23.5336 170.298 23.36C170.662 23.2822 171.04 23.24 171.428 23.2286C171.817 23.2173 172.141 23.2124 172.399 23.2124H176.999V34.5298H174.469ZM167.054 34.5298L169.763 30.203H172.399L169.711 34.5298H167.054Z" fill="white"/>
<path d="M53.2461 53.9702V38.8809H65.5035V53.9702H62.9717V41.2495H55.7779V53.9702" fill="white"/>
<path d="M73.5641 52.0217C74.2227 52.0217 74.7641 51.8562 75.1918 51.5285C75.6195 51.2008 75.9366 50.7546 76.1431 50.1933C76.3496 49.6304 76.452 49.0025 76.452 48.3114C76.452 47.6268 76.348 47.0038 76.1382 46.4409C75.9268 45.8795 75.6016 45.4318 75.1609 45.0992C74.7186 44.7682 74.1592 44.6028 73.4795 44.6028C72.8356 44.6028 72.3104 44.7585 71.9055 45.0684C71.499 45.3799 71.1998 45.813 71.0063 46.3679C70.8144 46.9227 70.7185 47.5716 70.7185 48.3114C70.7185 49.0447 70.8144 49.692 71.0063 50.2501C71.1998 50.8098 71.5038 51.2446 71.9201 51.5545C72.3364 51.8659 72.8844 52.0217 73.5641 52.0217ZM73.9527 54.2848C72.847 54.2848 71.9185 54.022 71.1705 53.498C70.4209 52.974 69.8566 52.2602 69.4777 51.3549C69.1005 50.4513 68.9119 49.4357 68.9119 48.3114C68.9119 47.1725 69.1005 46.1521 69.4777 45.2517C69.8566 44.3497 70.4111 43.6391 71.1429 43.1183C71.8746 42.5992 72.7803 42.3396 73.8584 42.3396C74.93 42.3396 75.8585 42.5992 76.6472 43.1183C77.4342 43.6391 78.0456 44.348 78.4798 45.2468C78.9139 46.144 79.1302 47.166 79.1302 48.3114C79.1302 49.4438 78.9172 50.4594 78.4895 51.3614C78.0635 52.2618 77.4602 52.974 76.6846 53.498C75.9057 54.022 74.9967 54.2848 73.9527 54.2848ZM68.481 58.9993V42.6527H70.7185V50.5957H71.0323V58.9993" fill="white"/>
<path d="M86.4524 51.9164C87.4606 51.9164 88.2086 51.5806 88.6997 50.9105C89.1891 50.2405 89.4346 49.3742 89.4346 48.3116C89.4346 47.2149 89.1859 46.3404 88.6899 45.6866C88.1923 45.0345 87.4459 44.7067 86.4524 44.7067C85.7727 44.7067 85.2133 44.8592 84.7759 45.1626C84.3385 45.4676 84.0149 45.8894 83.8051 46.4313C83.5954 46.9715 83.4897 47.5994 83.4897 48.3116C83.4897 49.4083 83.7401 50.2827 84.2409 50.9365C84.7418 51.5903 85.4784 51.9164 86.4524 51.9164ZM86.4524 54.285C85.3174 54.285 84.3255 54.0303 83.4783 53.5193C82.6327 53.0098 81.9758 52.3058 81.5091 51.4086C81.0441 50.5098 80.8115 49.478 80.8115 48.3116C80.8115 47.124 81.0489 46.0841 81.5254 45.1886C82.0018 44.2947 82.6636 43.5954 83.5108 43.0941C84.358 42.5896 85.3385 42.3381 86.4524 42.3381C87.5939 42.3381 88.5875 42.5945 89.4346 43.1039C90.2818 43.6133 90.9404 44.3174 91.4103 45.2145C91.8787 46.1133 92.1128 47.1451 92.1128 48.3116C92.1128 49.4845 91.877 50.5212 91.4038 51.4183C90.9306 52.3171 90.2721 53.018 89.4233 53.5258C88.5761 54.0319 87.5858 54.285 86.4524 54.285Z" fill="white"/>
<path d="M95.6722 47.1062H103.476V49.014H95.6722V47.1062ZM99.5797 54.285C98.4317 54.285 97.4235 54.0368 96.5552 53.5404C95.6869 53.0439 95.0088 52.356 94.5226 51.4767C94.0364 50.5958 93.7925 49.5835 93.7925 48.4381C93.7925 47.2003 94.0315 46.1263 94.5063 45.2145C94.9828 44.3044 95.6446 43.5954 96.4918 43.0941C97.339 42.5896 98.3195 42.3381 99.4334 42.3381C100.609 42.3381 101.609 42.6123 102.432 43.1607C103.255 43.7106 103.866 44.4829 104.264 45.4822C104.664 46.4816 104.814 47.6594 104.717 49.014H102.206V48.0909C102.199 46.8628 101.981 45.9641 101.555 45.3979C101.128 44.8333 100.455 44.5494 99.5374 44.5494C98.5016 44.5494 97.7309 44.869 97.2268 45.5082C96.7243 46.1474 96.4706 47.0818 96.4706 48.3116C96.4706 49.4569 96.7243 50.3444 97.2268 50.9738C97.7309 51.6017 98.4675 51.9164 99.4334 51.9164C100.056 51.9164 100.594 51.7785 101.045 51.5027C101.497 51.2269 101.845 50.8262 102.09 50.3022L104.59 51.0566C104.156 52.077 103.486 52.8703 102.578 53.4365C101.672 54.0011 100.672 54.285 99.5797 54.285Z" fill="white"/>
<path d="M107.048 53.9702L107.068 42.6528H109.632V48.1023L113.78 42.6528H116.941L112.541 48.3115L117.32 53.9702H113.969L109.632 48.5208V53.9702" fill="white"/>
<path d="M121.703 53.9702V44.8949H117.912V42.6528H128.025V44.8949H124.234V53.9702" fill="white"/>
<path d="M133.433 52.2732C134.009 52.2732 134.498 52.1709 134.905 51.9698C135.311 51.767 135.635 51.5188 135.875 51.2251C136.118 50.9315 136.28 50.6557 136.365 50.3961C136.497 50.0749 136.573 49.7066 136.591 49.2913C136.607 48.876 136.617 48.5385 136.617 48.2806L137.394 48.511C136.632 48.6294 135.976 48.7348 135.43 48.8257C134.884 48.9165 134.415 49.0009 134.022 49.082C133.63 49.1615 133.283 49.2507 132.983 49.3497C132.688 49.4535 132.44 49.5768 132.236 49.7147C132.035 49.8559 131.879 50.0165 131.77 50.1982C131.661 50.3799 131.607 50.5924 131.607 50.8374C131.607 51.1164 131.677 51.363 131.817 51.5756C131.957 51.7881 132.161 51.9584 132.431 52.0833C132.7 52.2099 133.035 52.2732 133.433 52.2732ZM132.931 54.2849C132.111 54.2849 131.418 54.1291 130.851 53.8176C130.283 53.5078 129.854 53.0941 129.565 52.5765C129.274 52.059 129.127 51.4896 129.127 50.8682C129.127 50.3231 129.218 49.8332 129.4 49.3968C129.582 48.9603 129.864 48.5823 130.241 48.2644C130.618 47.9464 131.109 47.6868 131.711 47.484C132.166 47.3364 132.7 47.205 133.314 47.0849C133.926 46.9665 134.591 46.8562 135.31 46.7556C136.027 46.6534 136.778 46.5447 137.562 46.4246L136.658 46.9389C136.666 46.157 136.49 45.5794 136.132 45.2095C135.776 44.8396 135.175 44.6547 134.327 44.6547C133.817 44.6547 133.322 44.7731 132.846 45.0116C132.37 45.2484 132.038 45.6573 131.848 46.2364L129.537 45.5145C129.817 44.5557 130.352 43.7883 131.139 43.2075C131.927 42.6284 132.989 42.3396 134.327 42.3396C135.336 42.3396 136.222 42.5035 136.989 42.8312C137.757 43.1589 138.324 43.6975 138.697 44.4454C138.9 44.8429 139.022 45.2501 139.064 45.6654C139.106 46.0807 139.128 46.5333 139.128 47.0233V53.9701H136.911V51.5188L137.279 51.9162C136.767 52.7339 136.17 53.3325 135.488 53.7138C134.805 54.0934 133.952 54.2849 132.931 54.2849Z" fill="white"/>
<path d="M141.837 53.9702V42.6528H143.916L147.98 50.4692L152.057 42.6528H154.125V53.9702H151.709V47.7356L148.486 53.9702H147.487L144.263 47.7356V53.9702" fill="white"/>
<path d="M166.896 42.6528V53.9702H164.47V46.5821L159.072 53.9702H157.045V42.6528H159.472V49.8528L164.891 42.6528" fill="white"/>
</svg>
