<svg width="22" height="22" viewBox="0 0 22 22" fill="none" xmlns="http://www.w3.org/2000/svg">
<path d="M21.2139 3.45502V20.6699C21.2139 20.931 20.9885 21.152 20.722 21.152H3.15647C2.95151 21.152 2.76704 21.0314 2.70555 20.8507C2.62356 20.6699 2.66455 20.469 2.80803 20.3284L20.3736 3.11354C20.5171 2.97293 20.722 2.93275 20.9065 3.0131C21.091 3.07336 21.2139 3.25415 21.2139 3.45502ZM10.2893 8.31616C10.3713 8.41659 10.4942 8.45677 10.6377 8.45677C10.7402 8.45677 10.9042 8.39651 10.9862 8.31616L18.6314 0.823581C18.7749 0.682969 18.8158 0.482096 18.7339 0.30131C18.6519 0.120524 18.4674 0 18.2829 0H2.9925C2.78753 0 2.62356 0.120524 2.54157 0.30131C2.45959 0.482096 2.50058 0.682969 2.64406 0.823581L10.2893 8.31616ZM7.91167 11.1083C8.09614 10.9275 8.09614 10.6061 7.91167 10.4253L0.840359 3.51528C0.696883 3.37467 0.491918 3.3345 0.307449 3.39476C0.122979 3.47511 0 3.6559 0 3.85677V17.6969C0 17.8978 0.122979 18.0585 0.307449 18.1389C0.368938 18.159 0.430428 18.179 0.491918 18.179C0.614897 18.179 0.737876 18.1389 0.840359 18.0384L7.91167 11.1083Z" fill="#E9BE02"/>
</svg>
